<svg xmlns="http://www.w3.org/2000/svg" xmlns:xlink="http://www.w3.org/1999/xlink" viewBox="0 0 1728 1370.13">
  <defs>
    <style>
      .a, .as, .at {
        fill: none;
      }

      .b {
        fill: #fff;
      }

      .c {
        clip-path: url(#a);
      }

      .d {
        clip-path: url(#b);
      }

      .e {
        fill: #231f20;
      }

      .f {
        clip-path: url(#c);
      }

      .g {
        clip-path: url(#e);
      }

      .h {
        clip-path: url(#g);
      }

      .i {
        clip-path: url(#h);
      }

      .j {
        clip-path: url(#j);
      }

      .k {
        clip-path: url(#l);
      }

      .l {
        clip-path: url(#n);
      }

      .m {
        clip-path: url(#p);
      }

      .n {
        clip-path: url(#r);
      }

      .o {
        clip-path: url(#t);
      }

      .p {
        clip-path: url(#v);
      }

      .q {
        clip-path: url(#x);
      }

      .r {
        clip-path: url(#z);
      }

      .s {
        clip-path: url(#ab);
      }

      .t {
        clip-path: url(#ad);
      }

      .u {
        clip-path: url(#af);
      }

      .v {
        clip-path: url(#ah);
      }

      .w {
        clip-path: url(#aj);
      }

      .x {
        clip-path: url(#al);
      }

      .y {
        clip-path: url(#an);
      }

      .z {
        clip-path: url(#ap);
      }

      .aa {
        clip-path: url(#ar);
      }

      .ab {
        clip-path: url(#at);
      }

      .ac {
        clip-path: url(#av);
      }

      .ad {
        clip-path: url(#ax);
      }

      .ae {
        clip-path: url(#az);
      }

      .af {
        clip-path: url(#ba);
      }

      .ag {
        clip-path: url(#bb);
      }

      .ah {
        clip-path: url(#bd);
      }

      .ai {
        clip-path: url(#bf);
      }

      .aj {
        clip-path: url(#bh);
      }

      .ak {
        clip-path: url(#bj);
      }

      .al {
        clip-path: url(#bl);
      }

      .am {
        clip-path: url(#bn);
      }

      .an {
        clip-path: url(#bp);
      }

      .ao {
        clip-path: url(#br);
      }

      .ap {
        clip-path: url(#bt);
      }

      .aq {
        clip-path: url(#bv);
      }

      .ar {
        clip-path: url(#bx);
      }

      .as, .at {
        stroke: #000;
        stroke-miterlimit: 10;
      }

      .as {
        stroke-width: 6px;
      }

      .at {
        stroke-width: 7px;
      }
    </style>
    <clipPath id="a">
      <rect class="a" x="242" y="36" width="1252" height="1252"/>
    </clipPath>
    <clipPath id="b">
      <path class="a" d="M1493.62,661.62c0,345.45-280,625.48-625.49,625.48s-625.49-280-625.49-625.48,280-625.5,625.49-625.5S1493.62,316.17,1493.62,661.62Z"/>
    </clipPath>
    <clipPath id="c">
      <rect class="a" x="754" y="162" width="194" height="123"/>
    </clipPath>
    <clipPath id="e">
      <rect class="a" x="1071" y="1083" width="73" height="205"/>
    </clipPath>
    <clipPath id="g">
      <rect class="a" x="1067" y="1080" width="81" height="208"/>
    </clipPath>
    <clipPath id="h">
      <rect class="a" x="1014" y="884" width="149" height="308"/>
    </clipPath>
    <clipPath id="j">
      <rect class="a" x="1010" y="880" width="156" height="316"/>
    </clipPath>
    <clipPath id="l">
      <rect class="a" x="591" y="1083" width="74" height="205"/>
    </clipPath>
    <clipPath id="n">
      <rect class="a" x="588" y="1080" width="81" height="208"/>
    </clipPath>
    <clipPath id="p">
      <rect class="a" x="573" y="884" width="150" height="308"/>
    </clipPath>
    <clipPath id="r">
      <rect class="a" x="570" y="880" width="156" height="316"/>
    </clipPath>
    <clipPath id="t">
      <rect class="a" x="675" y="826" width="387.42" height="462"/>
    </clipPath>
    <clipPath id="v">
      <rect class="a" x="671" y="822" width="395" height="466"/>
    </clipPath>
    <clipPath id="x">
      <rect class="a" x="810" y="719" width="121" height="158"/>
    </clipPath>
    <clipPath id="z">
      <rect class="a" x="806" y="715" width="129" height="166"/>
    </clipPath>
    <clipPath id="ab">
      <rect class="a" x="660" y="525" width="56.77" height="90"/>
    </clipPath>
    <clipPath id="ad">
      <rect class="a" x="657" y="521.17" width="63.41" height="96.83"/>
    </clipPath>
    <clipPath id="af">
      <rect class="a" x="670" y="541" width="32" height="60"/>
    </clipPath>
    <clipPath id="ah">
      <rect class="a" x="677" y="546.64" width="20" height="27.36"/>
    </clipPath>
    <clipPath id="aj">
      <rect class="a" x="1020" y="525" width="56.97" height="90"/>
    </clipPath>
    <clipPath id="al">
      <rect class="a" x="1017" y="521.17" width="63.61" height="96.83"/>
    </clipPath>
    <clipPath id="an">
      <rect class="a" x="1035" y="541" width="33" height="60"/>
    </clipPath>
    <clipPath id="ap">
      <rect class="a" x="1040.59" y="546.64" width="19.41" height="27.36"/>
    </clipPath>
    <clipPath id="ar">
      <rect class="a" x="708" y="330" width="325" height="452"/>
    </clipPath>
    <clipPath id="at">
      <rect class="a" x="704" y="326" width="332" height="460"/>
    </clipPath>
    <clipPath id="av">
      <rect class="a" x="817" y="653" width="105" height="48"/>
    </clipPath>
    <clipPath id="ax">
      <rect class="a" x="816" y="651" width="108" height="52"/>
    </clipPath>
    <clipPath id="az">
      <rect class="a" x="741" y="462" width="95" height="26.42"/>
    </clipPath>
    <clipPath id="ba">
      <rect class="a" x="899" y="462" width="95" height="26.42"/>
    </clipPath>
    <clipPath id="bb">
      <rect class="a" x="847" y="601.21" width="47" height="20.79"/>
    </clipPath>
    <clipPath id="bd">
      <rect class="a" x="795" y="529" width="30.92" height="54"/>
    </clipPath>
    <clipPath id="bf">
      <rect class="a" x="915" y="529" width="30.99" height="54"/>
    </clipPath>
    <clipPath id="bh">
      <rect class="a" x="822.29" y="658" width="96.71" height="31"/>
    </clipPath>
    <clipPath id="bj">
      <rect class="a" x="821" y="656" width="99.52" height="35"/>
    </clipPath>
    <clipPath id="bl">
      <rect class="a" x="822.29" y="658" width="13.71" height="15.98"/>
    </clipPath>
    <clipPath id="bn">
      <rect class="a" x="904" y="658" width="15" height="15.98"/>
    </clipPath>
    <clipPath id="bp">
      <rect class="a" x="669" y="266.48" width="382.5" height="290.52"/>
    </clipPath>
    <clipPath id="br">
      <rect class="a" x="914" y="737" width="128" height="329"/>
    </clipPath>
    <clipPath id="bt">
      <rect class="a" x="712" y="507" width="321" height="108"/>
    </clipPath>
    <clipPath id="bv">
      <rect class="a" x="710" y="505" width="325" height="112"/>
    </clipPath>
    <clipPath id="bx">
      <rect class="a" x="233.59" y="27.07" width="1269" height="1268.93"/>
    </clipPath>
  </defs>
  <title>profile_cartoon_wave</title>
  <g>
    <path class="b" d="M1117.72,903.51a4,4,0,0,0,.28.61c1,1.8,3.6,3,5.34,4,2.89,1.58,5.93,2.89,9,4.2-1.3-1.11-2.61-2.21-4-3.27A38.87,38.87,0,0,0,1117.72,903.51Z"/>
    <path class="b" d="M0,0V1296H1728V0ZM1170.11,1116.77a11.76,11.76,0,0,1-6.22,1.51,4.51,4.51,0,0,1-4.3-2.58,40.21,40.21,0,0,1-4.85-.48c-2.66-.53-4.17-3.69-3.49-6.15a5.12,5.12,0,0,1,6.15-3.49c4.33.86,8.66.49,12.71,2.56C1173.52,1109.88,1173.2,1115,1170.11,1116.77Zm-1.79-171.26c-8.4-2.92-14.39-9.46-21.63-14.31A136,136,0,0,0,1126,920.32c-5.54-2.45-11.56-4.84-15.55-9.61a12.7,12.7,0,0,1-3.28-8.85,8.71,8.71,0,0,1,.43-2c-3.28-.54-6.56-1-9.86-1.45h-1.08c-2.24,0-4.47-.08-6.71-.15a5.77,5.77,0,0,1-2.11,0l-.26-.05-3.78-.14a2.73,2.73,0,0,1-.73.35,3.62,3.62,0,0,1-1.92.43,3.68,3.68,0,0,1-1.93-.43,3.16,3.16,0,0,1-.78-.39h-.17a6.45,6.45,0,0,1-1.11-.1l-2.59-.11c-6.43-.16-6.45-10,0-10l2.34,0,1.73-.15a20.8,20.8,0,0,1,3.74-.5,4.85,4.85,0,0,1,1.79.21h.06a125,125,0,0,1,14,1l.9,0c5.4.14,11.21.45,16.25,2.6l1.29.21a3.87,3.87,0,0,1,2.37,1.33c6.13.66,11.49,4.37,16.92,7.2a116.71,116.71,0,0,1,18.19,11.59c9.38,7.32,20.6,16.29,20.5,29.35C1174.62,943.75,1171.44,946.6,1168.32,945.51Zm53.17,54.69c-6.45,0-6.44-10,0-10S1227.92,1000.2,1221.49,1000.2Z"/>
    <path class="b" d="M1117.72,903.51a4,4,0,0,0,.28.61c1,1.8,3.6,3,5.34,4,2.89,1.58,5.93,2.89,9,4.2-1.3-1.11-2.61-2.21-4-3.27A38.87,38.87,0,0,0,1117.72,903.51Z"/>
    <path class="b" d="M0,0V1296H1728V0ZM1170.11,1116.77a11.76,11.76,0,0,1-6.22,1.51,4.51,4.51,0,0,1-4.3-2.58,40.21,40.21,0,0,1-4.85-.48c-2.66-.53-4.17-3.69-3.49-6.15a5.12,5.12,0,0,1,6.15-3.49c4.33.86,8.66.49,12.71,2.56C1173.52,1109.88,1173.2,1115,1170.11,1116.77Zm-1.79-171.26c-8.4-2.92-14.39-9.46-21.63-14.31A136,136,0,0,0,1126,920.32c-5.54-2.45-11.56-4.84-15.55-9.61a12.7,12.7,0,0,1-3.28-8.85,8.71,8.71,0,0,1,.43-2c-3.28-.54-6.56-1-9.86-1.45h-1.08c-2.24,0-4.47-.08-6.71-.15a5.77,5.77,0,0,1-2.11,0l-.26-.05-3.78-.14a2.73,2.73,0,0,1-.73.35,3.62,3.62,0,0,1-1.92.43,3.68,3.68,0,0,1-1.93-.43,3.16,3.16,0,0,1-.78-.39h-.17a6.45,6.45,0,0,1-1.11-.1l-2.59-.11c-6.43-.16-6.45-10,0-10l2.34,0,1.73-.15a20.8,20.8,0,0,1,3.74-.5,4.85,4.85,0,0,1,1.79.21h.06a125,125,0,0,1,14,1l.9,0c5.4.14,11.21.45,16.25,2.6l1.29.21a3.87,3.87,0,0,1,2.37,1.33c6.13.66,11.49,4.37,16.92,7.2a116.71,116.71,0,0,1,18.19,11.59c9.38,7.32,20.6,16.29,20.5,29.35C1174.62,943.75,1171.44,946.6,1168.32,945.51Zm53.17,54.69c-6.45,0-6.44-10,0-10S1227.92,1000.2,1221.49,1000.2Z"/>
    <path class="b" d="M0,0V1296H1728V0ZM1170.11,1116.77a11.76,11.76,0,0,1-6.22,1.51,4.51,4.51,0,0,1-4.3-2.58,40.21,40.21,0,0,1-4.85-.48c-2.66-.53-4.17-3.69-3.49-6.15a5.12,5.12,0,0,1,6.15-3.49c4.33.86,8.66.49,12.71,2.56C1173.52,1109.88,1173.2,1115,1170.11,1116.77Zm-1.79-171.26c-8.4-2.92-14.39-9.46-21.63-14.31A136,136,0,0,0,1126,920.32c-5.54-2.45-11.56-4.84-15.55-9.61a12.7,12.7,0,0,1-3.28-8.85,8.71,8.71,0,0,1,.43-2c-3.28-.54-6.56-1-9.86-1.45h-1.08c-2.24,0-4.47-.08-6.71-.15a5.77,5.77,0,0,1-2.11,0l-.26-.05-3.78-.14a2.73,2.73,0,0,1-.73.35,3.62,3.62,0,0,1-1.92.43,3.68,3.68,0,0,1-1.93-.43,3.16,3.16,0,0,1-.78-.39h-.17a6.45,6.45,0,0,1-1.11-.1l-2.59-.11c-6.43-.16-6.45-10,0-10l2.34,0,1.73-.15a20.8,20.8,0,0,1,3.74-.5,4.85,4.85,0,0,1,1.79.21h.06a125,125,0,0,1,14,1l.9,0c5.4.14,11.21.45,16.25,2.6l1.29.21a3.87,3.87,0,0,1,2.37,1.33c6.13.66,11.49,4.37,16.92,7.2a116.71,116.71,0,0,1,18.19,11.59c9.38,7.32,20.6,16.29,20.5,29.35C1174.62,943.75,1171.44,946.6,1168.32,945.51Zm53.17,54.69c-6.45,0-6.44-10,0-10S1227.92,1000.2,1221.49,1000.2Z"/>
    <path class="b" d="M1117.72,903.51a4,4,0,0,0,.28.61c1,1.8,3.6,3,5.34,4,2.89,1.58,5.93,2.89,9,4.2-1.3-1.11-2.61-2.21-4-3.27A38.87,38.87,0,0,0,1117.72,903.51Z"/>
    <g class="c">
      <g class="d">
        <g>
          <path class="b" d="M1117.72,903.51a4,4,0,0,0,.28.61c1,1.8,3.6,3,5.34,4,2.89,1.58,5.93,2.89,9,4.2-1.3-1.11-2.61-2.21-4-3.27A38.87,38.87,0,0,0,1117.72,903.51Z"/>
          <path class="b" d="M868.13,36.12c-345.45,0-625.49,280.05-625.49,625.5s280,625.48,625.49,625.48,625.49-280,625.49-625.48S1213.59,36.12,868.13,36.12Zm302,1080.65a11.76,11.76,0,0,1-6.22,1.51,4.51,4.51,0,0,1-4.3-2.58,40.21,40.21,0,0,1-4.85-.48c-2.66-.53-4.17-3.69-3.49-6.15a5.12,5.12,0,0,1,6.15-3.49c4.33.86,8.66.49,12.71,2.56C1173.52,1109.88,1173.2,1115,1170.11,1116.77Zm-1.79-171.26c-8.4-2.92-14.39-9.46-21.63-14.31A136,136,0,0,0,1126,920.32c-5.54-2.45-11.56-4.84-15.55-9.61a12.7,12.7,0,0,1-3.28-8.85,8.71,8.71,0,0,1,.43-2c-3.28-.54-6.56-1-9.86-1.45h-1.08c-2.24,0-4.47-.08-6.71-.15a5.77,5.77,0,0,1-2.11,0l-.26-.05-3.78-.14a2.73,2.73,0,0,1-.73.35,3.62,3.62,0,0,1-1.92.43,3.68,3.68,0,0,1-1.93-.43,3.16,3.16,0,0,1-.78-.39h-.17a6.45,6.45,0,0,1-1.11-.1l-2.59-.11c-6.43-.16-6.45-10,0-10l2.34,0,1.73-.15a20.8,20.8,0,0,1,3.74-.5,4.85,4.85,0,0,1,1.79.21h.06a125,125,0,0,1,14,1l.9,0c5.4.14,11.21.45,16.25,2.6l1.29.21a3.87,3.87,0,0,1,2.37,1.33c6.13.66,11.49,4.37,16.92,7.2a116.71,116.71,0,0,1,18.19,11.59c9.38,7.32,20.6,16.29,20.5,29.35C1174.62,943.75,1171.44,946.6,1168.32,945.51Zm53.17,54.69c-6.45,0-6.44-10,0-10S1227.92,1000.2,1221.49,1000.2Z"/>
          <path class="e" d="M1493.62,661.62H1482.7c0,169.74-68.77,323.31-180,434.56s-264.82,180-434.57,180-323.32-68.77-434.58-180-180-264.82-180-434.56S322.33,338.3,433.55,227,698.38,47,868.13,47s323.31,68.77,434.57,180,180,264.82,180,434.58h21.83c0-351.49-284.92-636.41-636.4-636.41S231.74,310.13,231.72,661.62,516.64,1298,868.13,1298s636.4-284.93,636.4-636.4h-10.91"/>
        </g>
      </g>
    </g>
    <g class="f">
      <g class="d">
        <path class="e" d="M780.73,284.86s-58.22-38.21,0-98.24,219.25,1.82,149.66,98.24H780.73"/>
      </g>
    </g>
    <g class="g">
      <g class="d">
        <path class="b" d="M1127.48,1366.49c7.82-130.1,16.42-282.5,16.42-282.5l-72.74,61.75c1.39,23.34,4.52,125.77,7.27,220.75h49"/>
      </g>
    </g>
    <g class="i">
      <g class="d">
        <path class="b" d="M1154.74,1115.22c-2.66-.53-4.17-3.69-3.49-6.15a5.12,5.12,0,0,1,6.15-3.49l.89.16c-5.3-51.2-15.62-133.49-29.43-161.93-10.38-21.37-28.33-36.24-43.61-45.75l-1.41-.06a2.89,2.89,0,0,1-.73.35,3.62,3.62,0,0,1-1.92.43,3.68,3.68,0,0,1-1.93-.43,3.16,3.16,0,0,1-.78-.39h-.17a6.45,6.45,0,0,1-1.11-.1l-2.59-.11c-4.47-.11-5.84-4.92-4.1-7.83a121.07,121.07,0,0,0-12.84-5.45c-88.16,3.74-14.92,301.89-14.92,301.89,103.09,24.26,119.54-37.75,119.54-37.75s-1-13.14-3-32.93A37.59,37.59,0,0,1,1154.74,1115.22Z"/>
      </g>
    </g>
    <g class="j">
      <g class="d">
        <path class="e" d="M1271.65,1022a3.44,3.44,0,0,0-.73-1c-8.09-7.85-18.51-17.83-30.79-29.28-6.88-6.41-18.05-16.81-33-30.08-13.74-12.22-23.6-20.89-34.19-29.64a22.7,22.7,0,0,1,1.69,8.69,5,5,0,0,1-.81,2.61c16.41,13.62,32.53,27.37,41.1,35.13,0,0,17.2,15.57,36.21,33.65,4.56,4.34,8.24,7.88,10.77,10.33l3.43,3.32a52.18,52.18,0,0,1,3.25,23.69c-1.2,14.36-7.9,33.59-31,53.84a187.49,187.49,0,0,1-34.15,23.13l-2.46-1.76c-19.42-14-100.66-73.88-151-131.59-17.32-19.8-30.93-39.37-37.13-56.3-3.1-8.46-4.35-16.18-3.52-22.92a28.41,28.41,0,0,1,8.59-17.3,146.3,146.3,0,0,1,30.19-7.71,129.82,129.82,0,0,1,29.55-1.1l1-.07a20.8,20.8,0,0,1,3.74-.5,4.85,4.85,0,0,1,1.79.21h.06a125,125,0,0,1,14,1l.9,0c5.4.14,11.21.45,16.25,2.6l1.25.21q-3.54-1.9-6.71-3.26c-22.65-9.59-46.47-9-64.62-6.1a150.25,150.25,0,0,0-30.86,8.21,3.61,3.61,0,0,0-1.1.72,35.76,35.76,0,0,0-11.25,22.14c-1.48,12.44,2.68,26.07,10.31,40.39s18.86,29.37,32.07,44.51c29.27,33.52,68.37,67.4,100.2,93,7.06,5.68,13.76,10.94,19.92,15.7a17.65,17.65,0,0,1,5.52,1.63,4.58,4.58,0,0,1,2.43,4.46c17.19,13.08,28.49,21,28.52,21a3.58,3.58,0,0,0,3.79.23c15.52-8.21,27.81-16.67,37.5-25.13,24.78-21.58,32.46-43.26,33.56-59.49S1271.82,1022.35,1271.65,1022Z"/>
      </g>
    </g>
    <g class="k">
      <g class="d">
        <path class="b" d="M657.43,1366.49c2.75-95,5.87-197.41,7.27-220.75L592,1084s8.59,152.4,16.41,282.5h49.06"/>
      </g>
    </g>
    <g class="l">
      <g class="d">
        <path class="e" d="M657.43,1366.49l3.63.1c2.74-94.95,5.88-197.45,7.28-220.64a3.7,3.7,0,0,0-1.29-3l-72.73-61.76a3.65,3.65,0,0,0-6,3s8.59,152.41,16.43,282.51a3.64,3.64,0,0,0,3.62,3.43h49.06a3.64,3.64,0,0,0,3.63-3.54l-3.63-.1v-3.64H608.37v3.64l3.64-.23c-3.92-65-8-135.65-11.14-190-1.57-27.17-2.89-50.3-3.81-66.61-.47-8.16-.84-14.63-1.08-19.05l-.4-6.79-3.62.2-2.36,2.77,72.74,61.75,2.36-2.77-3.64-.21c-1.4,23.51-4.52,125.84-7.27,220.86l3.64.1v0"/>
      </g>
    </g>
    <g class="m">
      <g class="d">
        <path class="b" d="M678.58,884.47S628,901.36,607.41,943.81,574,1148.61,574,1148.61s16.46,62,119.54,37.75c0,0,73.24-298.15-14.92-301.89"/>
      </g>
    </g>
    <g class="n">
      <g class="d">
        <path class="e" d="M678.58,884.47,677.43,881a149.52,149.52,0,0,0-28.64,14.11c-15.56,9.76-33.91,25-44.67,47.08a130.54,130.54,0,0,0-7.59,21.62C588.3,994,581.79,1040,577.29,1078.6s-6.95,69.7-6.95,69.73a3.61,3.61,0,0,0,.1,1.22c.11.38,3.2,11.84,14.72,23.34s31.54,22.78,64.4,22.74c12.86,0,27.69-1.71,44.78-5.73a3.63,3.63,0,0,0,2.7-2.67s7.17-29.17,14.32-69.35,14.32-91.44,14.32-135.94c0-26.79-2.55-51.12-9.55-69.43-3.51-9.13-8.14-16.81-14.35-22.4a35.89,35.89,0,0,0-23-9.28,3.85,3.85,0,0,0-1.31.19l1.15,3.45-.15,3.64a28.46,28.46,0,0,1,18.48,7.42c7.59,6.78,13.11,18.4,16.58,33.43s4.92,33.25,4.92,53c0,43.73-7.1,94.7-14.22,134.67-3.55,20-7.1,37.22-9.78,49.44-1.33,6.13-2.44,11-3.22,14.33s-1.21,5.11-1.21,5.11l3.52.87-.82-3.54c-16.64,3.91-30.91,5.53-43.12,5.53-31.22,0-49-10.45-59.27-20.62a55.87,55.87,0,0,1-10.29-14,45.2,45.2,0,0,1-2-4.52c-.2-.53-.34-.94-.43-1.21l-.08-.27,0,0-.67.18.67-.18-.67.18.67-.18-3.51.93,3.63.28s.2-2.51.59-7c1.36-15.79,5.06-55.9,10.66-96.63,2.8-20.37,6.07-40.89,9.77-58.57s7.82-32.55,12.06-41.26c9.87-20.34,27.11-34.79,42-44.09a154.84,154.84,0,0,1,19.17-10.22c2.47-1.09,4.48-1.89,5.84-2.41l1.56-.59.39-.14.11,0-1.15-3.46-.15,3.64.15-3.64"/>
      </g>
    </g>
    <g class="o">
      <g class="d">
        <path class="b" d="M1018.82,1366.49c19.2-179.66,47.28-453.79,42.88-479.69,0,0-114.52-48.52-134.36-60.64L868.8,838l-58.54-11.82c-19.84,12.12-134.35,60.64-134.35,60.64-4.41,25.9,23.68,300,42.88,479.69h300"/>
      </g>
    </g>
    <g class="p">
      <g class="d">
        <path class="e" d="M1018.82,1366.49l3.62.39c8.91-83.45,19.74-187.29,28.35-277.17,4.31-45,8-86.41,10.72-120.09s4.28-59.6,4.28-73.65a64.26,64.26,0,0,0-.51-9.78,3.66,3.66,0,0,0-2.18-2.73l-4.94-2.12c-11.09-4.71-39.09-16.7-66.46-28.8-13.69-6.06-27.22-12.16-38.39-17.37s-20-9.64-24.08-12.11a3.57,3.57,0,0,0-2.61-.46L868.8,834.27,811,822.6a3.58,3.58,0,0,0-2.61.46c-2.29,1.39-6.21,3.47-11.19,5.92-17.48,8.65-48.19,22.29-74.48,33.75-13.15,5.72-25.2,10.9-34,14.65-4.38,1.89-7.94,3.4-10.41,4.45l-3.82,1.63a3.63,3.63,0,0,0-2.17,2.73,64.26,64.26,0,0,0-.51,9.78c0,14,1.6,39.94,4.27,73.64,8,101.07,25.7,272.08,39.07,397.27a3.67,3.67,0,0,0,3.63,3.25h300a3.65,3.65,0,0,0,3.62-3.25l-3.62-.39v-3.64h-300v3.64l3.62-.38c-8.92-83.45-19.75-187.25-28.35-277.09-4.31-44.93-8-86.36-10.72-120s-4.25-59.5-4.25-73.07a59.46,59.46,0,0,1,.41-8.56l-3.59-.61,1.42,3.36S706,878,737.11,864.36c15.56-6.82,31.75-14,45.32-20.31,6.78-3.13,12.91-6,18-8.54s9.08-4.61,11.75-6.24l-1.9-3.11-.71,3.56,58.53,11.83a3.54,3.54,0,0,0,1.45,0l58.52-11.83-.71-3.56-1.9,3.11c2.67,1.63,6.68,3.72,11.76,6.24,17.75,8.77,48.46,22.41,74.81,33.88s48.25,20.77,48.26,20.77l1.43-3.36-3.6.61a56.39,56.39,0,0,1,.41,8.56c0,13.56-1.58,39.45-4.25,73.07-8,100.89-25.69,271.91-39,397.07l3.61.38v0"/>
      </g>
    </g>
    <g class="q">
      <g class="d">
        <path class="b" d="M916.05,719.43l-45.66,19.11-45.66-19.11s-3.6,91-14.34,111.89c0,0,30.31,43.66,60,45.48,29.68-1.82,60-45.48,60-45.48-10.75-20.93-14.34-111.89-14.34-111.89"/>
      </g>
    </g>
    <g class="r">
      <g class="d">
        <path class="e" d="M916.05,719.43l-1.41-3.35L870.39,734.6l-44.25-18.52a3.66,3.66,0,0,0-5,3.21s-.05,1.41-.17,3.92c-.41,8.82-1.61,31.19-3.85,53.56-1.12,11.17-2.52,22.37-4.19,31.82-.84,4.72-1.75,9-2.73,12.62a43.91,43.91,0,0,1-3,8.44,3.64,3.64,0,0,0,.24,3.74A181.43,181.43,0,0,0,826.7,856a116.66,116.66,0,0,0,19.87,16c7.35,4.55,15.31,7.9,23.6,8.41h.44c8.28-.51,16.24-3.86,23.59-8.41,11-6.84,20.71-16.44,27.75-24.38a165.37,165.37,0,0,0,11.42-14.25,3.6,3.6,0,0,0,.24-3.74,50.86,50.86,0,0,1-3.4-10c-3.83-15.24-6.52-40.48-8.18-61.71-.83-10.63-1.42-20.3-1.79-27.29-.2-3.49-.34-6.34-.43-8.3s-.13-3-.13-3a3.64,3.64,0,0,0-5-3.21l1.41,3.35-3.64.16s.91,22.81,3.15,48.27c1.12,12.73,2.59,26.12,4.46,37.73.93,5.81,2,11.17,3.13,15.8a56.66,56.66,0,0,0,4,11.59l3.25-1.66-3-2.07-.07.11a173.94,173.94,0,0,1-19.41,22.45,105.62,105.62,0,0,1-18.17,14.41c-6.5,3.95-13.22,6.57-19.57,6.95l.22,3.63.22-3.63c-6.56-.4-13.5-3.18-20.2-7.33-10-6.21-19.38-15.41-26.14-23-3.38-3.81-6.11-7.22-8-9.66l-2.16-2.88c-.24-.35-.42-.6-.55-.77l-.17-.25-3,2.07,3.24,1.66a56,56,0,0,0,4-11.59c4-16.18,6.67-41.48,8.37-62.91s2.37-38.86,2.37-38.9l-3.64-.15-1.41,3.37L869,741.91a3.76,3.76,0,0,0,2.8,0l45.66-19.11-1.4-3.37-3.64.16,3.64-.16"/>
      </g>
    </g>
    <g class="s">
      <g class="d">
        <path class="b" d="M715.79,565.11c4,24.51-4.81,46.35-19.77,48.82s-30.36-15.38-34.39-39.88,4.8-46.34,19.75-48.82,30.36,15.4,34.41,39.88"/>
      </g>
    </g>
    <g class="t">
      <g class="d">
        <path class="e" d="M715.79,565.11l-3.59.6a68.58,68.58,0,0,1,.93,11.16c0,9.18-2,17.36-5.23,23.26a23.78,23.78,0,0,1-5.65,7,14.47,14.47,0,0,1-6.81,3.17,13.63,13.63,0,0,1-2.21.18,16.63,16.63,0,0,1-8.46-2.53c-4.31-2.53-8.56-7-12-13a63.63,63.63,0,0,1-7.52-21.54,68.82,68.82,0,0,1-.92-11.16c0-9.18,2-17.38,5.23-23.28a23.51,23.51,0,0,1,5.64-7,14.36,14.36,0,0,1,6.82-3.17,12.54,12.54,0,0,1,2.19-.19,16.58,16.58,0,0,1,8.47,2.54c4.31,2.52,8.57,7,12,13a63.82,63.82,0,0,1,7.52,21.56l7.19-1.19c-2-12-6.6-22.6-12.73-30.35a38.24,38.24,0,0,0-10.31-9.26,23.8,23.8,0,0,0-12.18-3.54,20.19,20.19,0,0,0-3.38.27,21.76,21.76,0,0,0-10.22,4.7c-4.44,3.62-7.79,8.84-10.08,15a60.65,60.65,0,0,0-3.48,21,75.35,75.35,0,0,0,1,12.35c2,12,6.58,22.6,12.7,30.33a38.35,38.35,0,0,0,10.32,9.28,24.05,24.05,0,0,0,12.18,3.54,20.49,20.49,0,0,0,3.39-.28,21.57,21.57,0,0,0,10.22-4.71c4.45-3.61,7.79-8.83,10.07-15a61.12,61.12,0,0,0,3.5-21,77.61,77.61,0,0,0-1-12.35l-3.6.59"/>
      </g>
    </g>
    <g class="u">
      <g class="d">
        <path class="e" d="M670.86,565.16a22.75,22.75,0,0,1-.27-8.27,18.63,18.63,0,0,1,1-4.1,16,16,0,0,1,1.95-3.78,8.93,8.93,0,0,1,1.34-1.67,9.86,9.86,0,0,1,1.53-1.5,20.54,20.54,0,0,1,3.58-2.4,25.24,25.24,0,0,1,4-1.56,9.94,9.94,0,0,1,4.52-.2c3.13.55,5.54,2.87,7.08,5.3a30.27,30.27,0,0,1,3.44,7.83,58.7,58.7,0,0,1,1.79,8.21c.21,1.4.39,2.78.54,4.17s.23,2.83.28,4.12v0a1.28,1.28,0,0,1-.81,1.26,41,41,0,0,0-5.84,2.78c-1.8,1.07-3.69,2.36-4.53,3.86a1.68,1.68,0,0,0,0,2,6.53,6.53,0,0,0,2.18,1.72,32.34,32.34,0,0,0,6,2.14l.09,0a1,1,0,0,1,.71,1,32,32,0,0,1-1.75,8.43,14.24,14.24,0,0,1-2.1,3.88,6.33,6.33,0,0,1-3.92,2.36,6.62,6.62,0,0,1-2.31-.15,11,11,0,0,1-2-.8,17.74,17.74,0,0,1-3.48-2.49,42.14,42.14,0,0,1-5.59-6.22,53.71,53.71,0,0,0,6,5.66,16,16,0,0,0,3.47,2.12,6.33,6.33,0,0,0,3.71.59c2.43-.45,3.85-3,4.63-5.51a30.21,30.21,0,0,0,1.28-7.94l.78,1a29.88,29.88,0,0,1-6.58-2.18,8.42,8.42,0,0,1-3-2.4,3.85,3.85,0,0,1-.78-2.16,4.48,4.48,0,0,1,.52-2.16c1.4-2.42,3.43-3.64,5.37-4.89a46.16,46.16,0,0,1,6.19-3l-.81,1.29-.31-4.11c-.12-1.35-.28-2.7-.46-4a62.18,62.18,0,0,0-1.59-7.93,28.56,28.56,0,0,0-3.06-7.27,9.48,9.48,0,0,0-5.62-4.52,7.81,7.81,0,0,0-3.66,0,24.65,24.65,0,0,0-3.72,1.25,19,19,0,0,0-3.37,2.05,9.63,9.63,0,0,0-1.47,1.31,8.09,8.09,0,0,0-1.3,1.49,14.25,14.25,0,0,0-2.05,3.4,16.7,16.7,0,0,0-1.26,3.83,25.31,25.31,0,0,0-.42,8.15"/>
      </g>
    </g>
    <g class="v">
      <g class="d">
        <path class="e" d="M678.47,573.6a35.17,35.17,0,0,1-.6-5.51,33.94,33.94,0,0,1,.23-5.73,23.55,23.55,0,0,1,1.72-6.43,18.65,18.65,0,0,1,1.73-3,12.84,12.84,0,0,1,2.35-2.47l1.29-1.06,1.41-.72,1.33-.7,1.34-.36a14.59,14.59,0,0,1,2.37-.59l1.85-.17,1.64-.15a1.52,1.52,0,1,1,.25,3l-.11,0h-1.65l-1.64,0a13.15,13.15,0,0,0-2.06.32l-1.18.21-1.16.49c-.42.17-.83.32-1.25.5l-1.15.79a11,11,0,0,0-2.21,2,18.85,18.85,0,0,0-1.79,2.56,22.91,22.91,0,0,0-2.13,5.93,36.94,36.94,0,0,0-.58,11.07"/>
      </g>
    </g>
    <g class="w">
      <g class="d">
        <path class="b" d="M1021.83,565.11c-4.05,24.51,4.79,46.35,19.76,48.82s30.37-15.38,34.4-39.88-4.8-46.34-19.75-48.82-30.37,15.4-34.41,39.88"/>
      </g>
    </g>
    <g class="x">
      <g class="d">
        <path class="e" d="M1021.83,565.11l-3.6-.59a76.28,76.28,0,0,0-1,12.35c0,10.2,2.13,19.51,6.13,26.77a30.81,30.81,0,0,0,7.43,9.17,21.57,21.57,0,0,0,10.22,4.71,20.46,20.46,0,0,0,3.38.28,24,24,0,0,0,12.18-3.54c5.68-3.37,10.65-8.8,14.61-15.59a71,71,0,0,0,8.43-24,77.8,77.8,0,0,0,1-12.35c0-10.21-2.15-19.51-6.14-26.79a31,31,0,0,0-7.43-9.17,21.8,21.8,0,0,0-10.22-4.7,20.19,20.19,0,0,0-3.38-.27,23.86,23.86,0,0,0-12.18,3.54c-5.67,3.36-10.63,8.78-14.61,15.57a71,71,0,0,0-8.42,24l3.6.59,3.58.6c1.8-10.94,6-20.44,11.23-27a31.09,31.09,0,0,1,8.33-7.51,16.58,16.58,0,0,1,8.47-2.54,12.38,12.38,0,0,1,2.19.19,14.22,14.22,0,0,1,6.82,3.17c3.16,2.54,5.91,6.62,7.84,11.85a53.62,53.62,0,0,1,3,18.45,67.79,67.79,0,0,1-.94,11.16c-1.79,10.94-6,20.43-11.23,27a31,31,0,0,1-8.33,7.53,16.63,16.63,0,0,1-8.47,2.53,13.39,13.39,0,0,1-2.19-.18,14.5,14.5,0,0,1-6.82-3.17c-3.14-2.54-5.91-6.64-7.84-11.87a53,53,0,0,1-3-18.43,69.68,69.68,0,0,1,.92-11.16l-3.58-.6"/>
      </g>
    </g>
    <g class="y">
      <g class="d">
        <path class="e" d="M1066.75,565.16a25.31,25.31,0,0,0-.42-8.15,17.71,17.71,0,0,0-1.25-3.83,14.28,14.28,0,0,0-2.06-3.4,7.73,7.73,0,0,0-1.3-1.49,9.18,9.18,0,0,0-1.47-1.31,18.52,18.52,0,0,0-3.36-2.05,24.15,24.15,0,0,0-3.74-1.25,7.77,7.77,0,0,0-3.65,0,9.46,9.46,0,0,0-5.61,4.52,28.21,28.21,0,0,0-3.06,7.27,58.92,58.92,0,0,0-1.6,7.93c-.19,1.34-.33,2.69-.46,4l-.31,4.11-.8-1.29a46,46,0,0,1,6.18,3c1.94,1.25,4,2.47,5.36,4.89a4.54,4.54,0,0,1,.54,2.16,4,4,0,0,1-.78,2.16,8.59,8.59,0,0,1-3,2.4,29.61,29.61,0,0,1-6.59,2.18l.79-1a30.19,30.19,0,0,0,1.26,7.94c.79,2.48,2.21,5.06,4.65,5.51a6.36,6.36,0,0,0,3.71-.59,16.23,16.23,0,0,0,3.47-2.12,52.86,52.86,0,0,0,6-5.66,43.23,43.23,0,0,1-5.58,6.22,18.11,18.11,0,0,1-3.49,2.49,10.61,10.61,0,0,1-2.06.8,6.54,6.54,0,0,1-2.3.15,6.33,6.33,0,0,1-3.92-2.36,14.48,14.48,0,0,1-2.09-3.88,32,32,0,0,1-1.75-8.43,1,1,0,0,1,.71-1l.07,0a31.94,31.94,0,0,0,6-2.14,6.73,6.73,0,0,0,2.18-1.72,1.68,1.68,0,0,0,.05-2c-.85-1.5-2.74-2.79-4.55-3.86a39.52,39.52,0,0,0-5.84-2.78,1.31,1.31,0,0,1-.81-1.24l0-.06c.06-1.29.13-2.76.28-4.12s.31-2.77.53-4.17a63.31,63.31,0,0,1,1.79-8.21A30,30,0,0,1,1042,547c1.52-2.43,4-4.75,7.08-5.3a9.86,9.86,0,0,1,4.5.2,25.1,25.1,0,0,1,4,1.56,20,20,0,0,1,3.56,2.4,10.45,10.45,0,0,1,1.55,1.5,8.93,8.93,0,0,1,1.34,1.67,14.84,14.84,0,0,1,1.93,3.78,18.67,18.67,0,0,1,1,4.1,22.75,22.75,0,0,1-.28,8.27"/>
      </g>
    </g>
    <g class="z">
      <g class="d">
        <path class="e" d="M1059.15,573.6a37.2,37.2,0,0,0,.13-5.51,31.5,31.5,0,0,0-.73-5.56,22.14,22.14,0,0,0-2.11-5.93,18.06,18.06,0,0,0-1.8-2.56,11.46,11.46,0,0,0-2.19-2l-1.17-.79-1.24-.5-1.18-.49-1.18-.21a12.93,12.93,0,0,0-2-.32l-1.64,0h-1.65a1.56,1.56,0,0,1-1.52-1.55,1.53,1.53,0,0,1,1.54-1.5h.13l1.61.15,1.87.17a14.49,14.49,0,0,1,2.36.59l1.33.36,1.35.7,1.41.72,1.28,1.06a12.79,12.79,0,0,1,2.34,2.47,18,18,0,0,1,1.75,3,23.52,23.52,0,0,1,1.71,6.43,33,33,0,0,1,.24,5.73,35.17,35.17,0,0,1-.6,5.51"/>
      </g>
    </g>
    <g class="aa">
      <g class="d">
        <path class="b" d="M1032.28,547.26c0,29-3.71,62.34-13.72,94.66-22.4,72.46-103.74,139.6-148.17,139.6-45.08,0-127.17-69.11-149.14-142.76-9.34-31.32-12.75-63.48-12.75-91.5,0-93.84,16.53-216.67,161.89-216.67s161.89,122.83,161.89,216.67"/>
      </g>
    </g>
    <g class="ab">
      <g class="d">
        <path class="e" d="M1032.28,547.26h-3.64c0,28.64-3.68,61.7-13.55,93.58-10.9,35.36-36.48,69.87-64.78,95.34-14.14,12.75-29,23.23-42.86,30.48s-26.86,11.23-37.06,11.22-23.49-4.07-37.53-11.53c-21.08-11.17-44.17-29.82-63.91-52.44s-36.19-49.24-44.22-76.18c-9.21-30.92-12.59-62.75-12.59-90.47,0-46.71,4.19-100.38,26-141.82,10.9-20.76,26.13-38.45,47.46-51.06s48.93-20.13,84.77-20.15,63.42,7.56,84.77,20.15a121.31,121.31,0,0,1,38.44,36.1c14.83,21.47,23.63,47.49,28.67,74.76s6.37,55.74,6.37,82h7.27c0-47.13-4.07-101.8-26.84-145.21-11.4-21.7-27.57-40.57-50.21-53.93S907.23,327,870.39,327s-65.83,7.81-88.47,21.17a128.34,128.34,0,0,0-40.73,38.23C725.57,409,716.53,436,711.34,463.92s-6.48,56.82-6.48,83.34c0,28.31,3.44,60.79,12.91,92.54,11.27,37.71,37.63,73.78,66.92,100.64,14.65,13.42,30,24.53,44.76,32.33s28.74,12.36,40.94,12.37c12,0,25.87-4.45,40.44-12,21.81-11.42,45.24-30.07,65.45-52.78S1013.43,670.83,1022,643c10.12-32.74,13.87-66.45,13.87-95.72h-3.63"/>
      </g>
    </g>
    <g class="ac">
      <g class="d">
        <path class="b" d="M818,658.77s37.52-11.58,103.47-1.12c0,0-48.27,96-103.47,1.12"/>
      </g>
    </g>
    <g class="ad">
      <g class="d">
        <path class="e" d="M818,658.77l.54,1.74.18-.06c1.93-.55,19.32-5.36,49.74-5.36a337,337,0,0,1,52.73,4.35l.28-1.79-1.62-.82-.24.45a116.69,116.69,0,0,1-15.93,22.66,71.07,71.07,0,0,1-15.59,13.16A37.19,37.19,0,0,1,869,698.81c-7.19,0-15-2.44-23.27-8.79s-17.11-16.62-26.16-32.17l-1.57.92.54,1.74-.54-1.74-1.57.91c9.21,15.84,18.27,26.48,27.1,33.23s17.42,9.55,25.47,9.54,15.62-2.83,22.18-7c19.69-12.51,31.82-36.87,31.91-37a1.77,1.77,0,0,0,0-1.63,1.8,1.8,0,0,0-1.34-1,339.29,339.29,0,0,0-53.29-4.4c-32.86,0-50.84,5.52-51,5.58a1.78,1.78,0,0,0-1.16,1.08,1.82,1.82,0,0,0,.12,1.56l1.57-.91"/>
      </g>
    </g>
    <g class="ag">
      <g class="d">
        <path class="e" d="M847.93,621.23a10.9,10.9,0,0,1-.18-2.73,10.7,10.7,0,0,1,.69-3.17,14.77,14.77,0,0,1,1.94-3.78,18.79,18.79,0,0,1,3.4-3.76,22.38,22.38,0,0,1,4.68-3.18,25.2,25.2,0,0,1,5.68-2.12,31,31,0,0,1,6.25-.79,30.33,30.33,0,0,1,3.07.23,23.49,23.49,0,0,1,3.17.56,24.81,24.81,0,0,1,5.69,2.12,22.81,22.81,0,0,1,4.69,3.17,18.63,18.63,0,0,1,3.38,3.75,15,15,0,0,1,2,3.78,11,11,0,0,1,.51,5.92,14.21,14.21,0,0,0-.87-2.49,13.28,13.28,0,0,0-1.48-2.47,18.71,18.71,0,0,0-2.45-2.7,24.76,24.76,0,0,0-3.44-2.55,26.41,26.41,0,0,0-9.09-3.44,22.38,22.38,0,0,0-2.47-.37c-.71-.11-2-.07-2.66-.11a28,28,0,0,0-10,1.83,30.5,30.5,0,0,0-4.25,2.08,24.14,24.14,0,0,0-3.44,2.54,18.84,18.84,0,0,0-2.46,2.72,14.9,14.9,0,0,0-1.48,2.45,13.68,13.68,0,0,0-.86,2.51"/>
      </g>
    </g>
    <g class="ah">
      <g class="d">
        <path class="e" d="M825.24,555.72c0,14.74-6.61,26.68-14.75,26.68s-14.72-11.94-14.72-26.68S802.36,529,810.49,529s14.75,11.94,14.75,26.68"/>
      </g>
    </g>
    <g class="ai">
      <g class="d">
        <path class="e" d="M945,555.72c0,14.74-6.59,26.68-14.73,26.68s-14.74-11.94-14.74-26.68S922.14,529,930.29,529,945,541,945,555.72"/>
      </g>
    </g>
    <g class="aj">
      <g class="d">
        <path class="b" d="M822.89,658.77s37.3,21.25,95.66,0c0,0-46.08,67.54-95.66,0"/>
      </g>
    </g>
    <g class="ak">
      <g class="d">
        <path class="e" d="M822.89,658.77l-.9,1.58c.19.11,17.06,9.68,45.82,9.68,14.38,0,31.71-2.39,51.36-9.55l-.62-1.71-1.51-1-.21.3A87.57,87.57,0,0,1,902,673.79c-8.36,6.86-19.56,13.18-32.22,13.18-13.49,0-29-7.06-45.37-29.27l-1.47,1.07-.9,1.58.9-1.58-1.46,1.09c16.7,22.79,33.43,30.77,48.3,30.74s27.38-7.79,36.22-15.45A88.61,88.61,0,0,0,920,659.8a1.81,1.81,0,0,0-2.12-2.73c-19.26,7-36.14,9.32-50.11,9.34a111.58,111.58,0,0,1-32.55-4.65,82.36,82.36,0,0,1-8.6-3.17c-1-.43-1.69-.78-2.17-1l-.54-.27-.16-.08a1.82,1.82,0,0,0-2.36,2.66l1.46-1.09"/>
      </g>
    </g>
    <g class="al">
      <g class="d">
        <path class="e" d="M835.94,673.66a84.6,84.6,0,0,1-6.31-11.89,51.46,51.46,0,0,1-6.74-3,104.29,104.29,0,0,0,13.05,14.89"/>
      </g>
    </g>
    <g class="am">
      <g class="d">
        <path class="e" d="M905,673.6a87.42,87.42,0,0,0,13.58-14.83q-3,1.1-6,2.05A88,88,0,0,1,905,673.6"/>
      </g>
    </g>
    <g class="an">
      <g class="d">
        <path class="e" d="M708.5,556.06s-93.9-173,8.27-262.11c0,0,24.75-25.47,84.37-21.83,0,0,332.51-67.31,231.14,275.14,0,0,4.93-149.61-120.51-151.43,0,0-66.47,23.65-123.31,0s-81.24,43.93-80,160.23"/>
      </g>
    </g>
    <g class="ao">
      <g class="d">
        <path class="e" d="M1014.23,831.68S988,792.33,953.72,738a224.83,224.83,0,0,1-39.2,29c3.73,33.28,12.07,69.38,30.5,83.07,37.64,27.9,60.14,151.42,2.51,215.18,0,0,154.1-34,66.7-233.52"/>
      </g>
    </g>
    <g class="ap">
      <g class="d">
        <path class="b" d="M984.08,596.7s-15.2,9.9-47.75,6.28c-34.79-3.85-42.26-57.17-42.26-57.17V532.68s3.86-10,17.37-13.9,63-4.65,76.89,0c0,0,15.83,2.32,15.83,12S1006.1,584.21,984.08,596.7ZM849.25,549.2s-7.46,53.31-42.26,57.16c-32.54,3.62-47.74-6.28-47.74-6.28-22-12.47-20.09-56.28-20.09-66s15.84-12,15.84-12c13.9-4.63,63.35-3.85,76.88,0s17.37,13.91,17.37,13.91Zm181-23.6c-3.2-2.2-12.45-4.16-17.81-5.15-4.42-7.06-17.11-8.93-17.11-8.93-16.37-5.46-74.59-4.55-90.52,0-12.45,3.55-17.91,11.52-19.71,14.85-11.57-4.69-22.87-2.19-29,0a33,33,0,0,0-17.48-11.44c-15.92-4.55-74.13-5.46-90.51,0,0,0-7.89,1.18-13.4,5.12-4.31.74-16.44,3-20.21,5.58-4.62,3.19-.08,17.29-.08,17.29l15.23,4.7c.93,20,5.19,48.69,23.46,59,0,0,17.9,11.67,56.22,7.41,41-4.57,49.75-67.31,49.75-67.31v-1.82c11.67-7.55,20.86-2.6,25.89,1.86,2.51,13.12,14,60,49.14,63.88,38.32,4.27,56.23-7.4,56.23-7.4,17.12-9.71,21.94-35.52,23.24-55.19l16.77-5.18s4.53-14.1-.09-17.29"/>
      </g>
    </g>
    <g class="aq">
      <g class="d">
        <path class="e" d="M984.08,596.7l-1-1.53h0c-.41.26-11,6.78-32.9,6.78a121.29,121.29,0,0,1-13.64-.78,33.5,33.5,0,0,1-20.2-10c-8.06-8-13.25-19.39-16.33-28.82a114.51,114.51,0,0,1-3.23-11.93c-.32-1.51-.55-2.73-.69-3.56s-.2-1.26-.2-1.26l-1.81.25h1.82V532.68h-1.82l1.7.66a19.21,19.21,0,0,1,3.5-5.22,26.85,26.85,0,0,1,12.67-7.6c3.28-.94,9.24-1.75,16.33-2.29s15.41-.83,23.59-.83c7.5,0,14.91.24,21.25.76s11.61,1.32,14.64,2.34l.31.07.14,0a31.16,31.16,0,0,1,8,2.52,14.32,14.32,0,0,1,4.41,3.18,6.61,6.61,0,0,1,1.74,4.45c0,1.48,0,3.65,0,6.38,0,7.76-.36,19.88-3,31.25s-7.56,21.86-16.22,26.74l-.08,0,1,1.53.9,1.57c10.07-5.75,15.2-17.25,18-29.06S1006,545,1006,537.13c0-2.76,0-5,0-6.38a10.3,10.3,0,0,0-3-7.2,22.28,22.28,0,0,0-9.11-5.26,33.57,33.57,0,0,0-5.31-1.31l-.26,1.8.57-1.73c-3.61-1.2-9-2-15.49-2.52s-14-.76-21.55-.76c-8.27,0-16.66.28-23.88.83s-13.24,1.35-17,2.42a30.32,30.32,0,0,0-14.62,9,22.1,22.1,0,0,0-4,6.06l-.12.65v13.13l0,.26a113.38,113.38,0,0,0,8.23,27.63c3.17,7,7.46,14.25,13.27,20a37.31,37.31,0,0,0,22.36,11.09,130.57,130.57,0,0,0,14,.79c23.41,0,34.67-7.2,34.89-7.38l-1-1.51.9,1.57ZM849.25,549.2l-1.81-.26s0,.19-.07.57a110.81,110.81,0,0,1-9,28.61A58.8,58.8,0,0,1,826,595.48a33,33,0,0,1-19.17,9.07,121.32,121.32,0,0,1-13.64.79,83,83,0,0,1-25-3.46,43,43,0,0,1-6-2.34c-.65-.32-1.13-.57-1.43-.74l-.34-.2-.07-.05h0l-.08,0c-8.66-4.86-13.59-15.32-16.22-26.72s-3-23.51-3-31.27c0-2.72,0-4.92,0-6.38a6.73,6.73,0,0,1,2-4.7c1.86-2,5-3.44,7.6-4.31,1.33-.42,2.52-.73,3.37-.91l1-.2.34-.06.31-.07c3-1,8.32-1.83,14.64-2.34s13.73-.75,21.22-.75c8.2,0,16.52.28,23.62.82s13.05,1.35,16.33,2.3a26.61,26.61,0,0,1,12.89,7.86,21.37,21.37,0,0,1,2.59,3.57c.25.45.44.81.55,1l.12.27,0,.06,1.7-.66h-1.82V549.2h1.82l-1.81-.26,1.81.26h1.82V536.06l-.12-.65a22.14,22.14,0,0,0-4-6,30.25,30.25,0,0,0-14.62-9c-3.8-1.08-9.83-1.86-17.06-2.42s-15.61-.83-23.89-.83c-7.57,0-15,.24-21.52.76s-11.88,1.32-15.49,2.52l.58,1.72-.27-1.79a34.72,34.72,0,0,0-8.4,2.5,19.27,19.27,0,0,0-6,4.08,10.3,10.3,0,0,0-3,7.19c0,1.41-.05,3.62-.05,6.38,0,7.89.34,20.24,3.09,32.08s7.89,23.31,18,29.07l.89-1.58-1,1.52c.24.17,11.48,7.37,34.89,7.37a130.71,130.71,0,0,0,14-.79,37.15,37.15,0,0,0,22.36-11.09c8.72-8.65,14-20.54,17.24-30.26a112.18,112.18,0,0,0,4.26-17.38l0-.25Zm181-23.6,1-1.5a18.86,18.86,0,0,0-3.79-1.81,108.06,108.06,0,0,0-14.72-3.64l-.34,1.8,1.55-1c-2.63-4.12-7.25-6.43-11.14-7.85a42.07,42.07,0,0,0-7.26-1.92l-.26,1.81.57-1.73c-4.19-1.38-10.55-2.32-18.17-3s-16.41-.91-25.31-.91c-9.75,0-19.61.34-28.11,1s-15.59,1.57-20,2.84c-13,3.71-18.87,12.14-20.82,15.73l1.61.87.68-1.69a38.76,38.76,0,0,0-14.67-2.79,48,48,0,0,0-15.63,2.73l.61,1.72,1.44-1.11a34.82,34.82,0,0,0-18.43-12.08c-4.41-1.25-11.49-2.19-20-2.84s-18.36-1-28.11-1c-8.91,0-17.73.28-25.32.91s-14,1.54-18.16,2.95l.58,1.72-.27-1.8c-.12,0-8.15,1.16-14.18,5.44l1,1.48-.31-1.79c-2.18.37-6.31,1.12-10.42,2.11-2.06.5-4.11,1.07-5.93,1.68a19.49,19.49,0,0,0-4.59,2.08,6.26,6.26,0,0,0-2.33,3.38,13.83,13.83,0,0,0-.52,4.09,46.24,46.24,0,0,0,2.07,11.87,1.89,1.89,0,0,0,1.19,1.18l15.25,4.7.53-1.73-1.82.09c.47,10.09,1.78,22.39,5.3,33.61s9.36,21.4,19.09,26.93l.89-1.58-1,1.52c.24.18,13.4,8.64,40.9,8.64a148.17,148.17,0,0,0,16.5-.95c10.71-1.18,19.35-6.21,26.14-12.94,10.2-10.14,16.45-24.08,20.21-35.51a129.07,129.07,0,0,0,5-20.41l0-.25v-1.82H859l1,1.53a20.1,20.1,0,0,1,11-3.62c5.34,0,9.72,2.69,12.68,5.31l1.21-1.36-1.8.34c1.28,6.67,4.8,21.8,12.51,35.93a68.09,68.09,0,0,0,15.08,19.22,42.54,42.54,0,0,0,23.16,10.2,147.57,147.57,0,0,0,16.48.95c27.5,0,40.69-8.48,40.92-8.64l-1-1.52.89,1.58c9.13-5.19,14.78-14.5,18.38-24.84s5.12-21.88,5.79-31.81l-1.82-.12.53,1.74,16.77-5.19a1.88,1.88,0,0,0,1.2-1.18,45.73,45.73,0,0,0,2.07-11.85,13.88,13.88,0,0,0-.54-4.11,6.17,6.17,0,0,0-2.31-3.38l-1,1.5-1,1.51a2.64,2.64,0,0,1,.91,1.45,10.8,10.8,0,0,1,.37,3,33.77,33.77,0,0,1-1,7.14c-.24,1.06-.48,2-.66,2.61l-.21.73-.08.25,1.74.57-.54-1.75L1013,546.32a1.85,1.85,0,0,0-1.28,1.63c-.65,9.73-2.16,21-5.59,30.85s-8.73,18.35-16.73,22.87l-.1.06h0c-.54.33-13,8-38.93,8a148.31,148.31,0,0,1-16.09-.93,38.85,38.85,0,0,1-21.19-9.38c-8.76-7.42-14.92-18.23-19.1-28.45a135.09,135.09,0,0,1-7.28-24.59,1.81,1.81,0,0,0-.58-1c-3.33-2.95-8.47-6.21-15.08-6.22a23.83,23.83,0,0,0-13,4.21,1.81,1.81,0,0,0-.82,1.52v1.82H859l-1.8-.26s0,.23-.1.67a130,130,0,0,1-10.69,33.78c-3.66,7.49-8.45,14.86-14.61,20.54a39.26,39.26,0,0,1-22.75,10.77,148.8,148.8,0,0,1-16.11.93c-13.37,0-23.16-2.06-29.57-4.1a51.45,51.45,0,0,1-7.12-2.77c-.79-.37-1.35-.67-1.72-.88l-.4-.24-.1-.06h0l-.09,0c-8.56-4.84-14-14.13-17.4-24.87s-4.69-22.77-5.14-32.7a1.78,1.78,0,0,0-1.28-1.64l-15.24-4.72-.53,1.75,1.73-.57-.09-.25a42.79,42.79,0,0,1-1.82-10.5,10.05,10.05,0,0,1,.37-3,2.7,2.7,0,0,1,.91-1.47,17.47,17.47,0,0,1,3.7-1.63,122.36,122.36,0,0,1,15.8-3.65l.75-.31a27.85,27.85,0,0,1,8.22-3.77c1.28-.39,2.39-.64,3.17-.8l.91-.18.31-.06.3-.07c3.63-1.21,9.85-2.16,17.31-2.77s16.19-.9,25-.9c9.66,0,19.45.36,27.82,1s15.38,1.58,19.29,2.7a31.08,31.08,0,0,1,16.53,10.8,1.83,1.83,0,0,0,2,.61,43.89,43.89,0,0,1,14.42-2.54,35.36,35.36,0,0,1,13.31,2.54,1.82,1.82,0,0,0,2.27-.82c1.68-3.06,6.77-10.58,18.62-14,3.91-1.13,10.91-2.08,19.28-2.72s18.17-1,27.83-1c8.83,0,17.56.3,25,.89s13.67,1.57,17.3,2.78l.31.08.5.07a39.64,39.64,0,0,1,7.39,2.18c3.18,1.29,6.38,3.28,8,5.84a1.81,1.81,0,0,0,1.21.82c2.64.49,6.26,1.23,9.57,2.09,1.65.45,3.23.91,4.57,1.39a15,15,0,0,1,3,1.4l1-1.51"/>
      </g>
    </g>
    <g class="ar">
      <path class="e" d="M1493.62,661.62h-9.1c0,170.24-69,324.27-180.53,435.86S1038.37,1278,868.13,1278s-324.28-69-435.85-180.52S251.73,831.86,251.73,661.62s69-324.29,180.55-435.86S697.88,45.22,868.13,45.22s324.28,69,435.86,180.54,180.53,265.6,180.53,435.86h18.19C1502.71,311.14,1218.6,27,868.13,27S233.56,311.14,233.54,661.62,517.65,1296.2,868.13,1296.2s634.58-284.11,634.58-634.58h-9.09"/>
    </g>
  </g>
  <g>
    <path class="as" d="M1061.7,886.8c47.69-14.35,173.77,36.4,173.77,36.4.1,3.34.14,6.63.14,9.87,0,127.11-69.61,170.75-69.61,170.75s-111.71-91.57-111.08-98.88"/>
    <path class="at" d="M1235.75,935"/>
    <path class="at" d="M1359.62,601c-3.19,0-22.62-60-34.62-56a11,11,0,0,0-6,10c-2,27,12,51,22.28,75.13-9.47-3.2-3.36-6.67,0,0C1329,626,1317,622,1305,621c-3,0-8,1-8,3-3,13,9,21,17,30,12,11,24,21,36,31,0,0-11.81,183.48-114.39,248.07"/>
    <path class="at" d="M1226.43,998.94C1268,990,1299.15,958.83,1319,921a816,816,0,0,0,57-137c5-20,10-39,15-60,3-13,3-25,8-37,2-5,8-8,10-13,1-3,2-7,3-10,7-25,11.43-40.23,13.31-66.24.6-8.23,2.19-26.15-1.81-34.15-1-2-8.5-5.61-10.5-2.61-9,18-12,37-14.33,56.17,0-9,.16-1.06,0,0,.33-10.17,1.55-18.49.55-28.49,0-6-.22-8.68,0-17.68.2-7.07-.1-18.36-2.1-24.36-2-3-6.3-7.73-11.3-3.73-7,20-7.37,36.77-7.38,58.09.77-15-.5,7.19-.5,7.32,1-19.27,2.63-25.47-5.51-61.68-2.31-10.26-5.38-20.41-14.65-15.55a5.27,5.27,0,0,1-1.81.43c-4.91.63.33,53.76,3.6,76.53"/>
    <path class="e" d="M741.31,488.42s18.87-24.84,37.56-20.58,48.31,11.79,56.82,2.3c-32.22-13-78.49-31.54-94.38,18.28"/>
    <path class="e" d="M993.69,489.52S972.89,463,954.2,467.29s-46.37,13.44-54.89,4c4.93-7.72,73.83-41.85,94.38,18.27"/>
  </g>
</svg>
