<?xml version="1.0" encoding="UTF-8"?>
<svg xmlns="http://www.w3.org/2000/svg" xmlns:xlink="http://www.w3.org/1999/xlink" width="1728pt" height="1295.99994pt" viewBox="0 0 1728 1295.99994" version="1.2">
<defs>
<clipPath id="clip1">
  <path d="M 242 36 L 1494 36 L 1494 1288 L 242 1288 Z M 242 36 "/>
</clipPath>
<clipPath id="clip2">
  <path d="M 1493.617188 661.617188 C 1493.617188 1007.070312 1213.585938 1287.097656 868.132812 1287.097656 C 522.683594 1287.097656 242.636719 1007.070312 242.636719 661.617188 C 242.636719 316.167969 522.683594 36.121094 868.132812 36.121094 C 1213.585938 36.121094 1493.617188 316.167969 1493.617188 661.617188 Z M 1493.617188 661.617188 "/>
</clipPath>
<clipPath id="clip3">
  <path d="M 754 162 L 948 162 L 948 285 L 754 285 Z M 754 162 "/>
</clipPath>
<clipPath id="clip4">
  <path d="M 1493.617188 661.617188 C 1493.617188 1007.070312 1213.585938 1287.097656 868.132812 1287.097656 C 522.683594 1287.097656 242.636719 1007.070312 242.636719 661.617188 C 242.636719 316.167969 522.683594 36.121094 868.132812 36.121094 C 1213.585938 36.121094 1493.617188 316.167969 1493.617188 661.617188 Z M 1493.617188 661.617188 "/>
</clipPath>
<clipPath id="clip5">
  <path d="M 1071 1083 L 1144 1083 L 1144 1288 L 1071 1288 Z M 1071 1083 "/>
</clipPath>
<clipPath id="clip6">
  <path d="M 1493.617188 661.617188 C 1493.617188 1007.070312 1213.585938 1287.097656 868.132812 1287.097656 C 522.683594 1287.097656 242.636719 1007.070312 242.636719 661.617188 C 242.636719 316.167969 522.683594 36.121094 868.132812 36.121094 C 1213.585938 36.121094 1493.617188 316.167969 1493.617188 661.617188 Z M 1493.617188 661.617188 "/>
</clipPath>
<clipPath id="clip7">
  <path d="M 1067 1080 L 1148 1080 L 1148 1288 L 1067 1288 Z M 1067 1080 "/>
</clipPath>
<clipPath id="clip8">
  <path d="M 1493.617188 661.617188 C 1493.617188 1007.070312 1213.585938 1287.097656 868.132812 1287.097656 C 522.683594 1287.097656 242.636719 1007.070312 242.636719 661.617188 C 242.636719 316.167969 522.683594 36.121094 868.132812 36.121094 C 1213.585938 36.121094 1493.617188 316.167969 1493.617188 661.617188 Z M 1493.617188 661.617188 "/>
</clipPath>
<clipPath id="clip9">
  <path d="M 1014 884 L 1163 884 L 1163 1192 L 1014 1192 Z M 1014 884 "/>
</clipPath>
<clipPath id="clip10">
  <path d="M 1493.617188 661.617188 C 1493.617188 1007.070312 1213.585938 1287.097656 868.132812 1287.097656 C 522.683594 1287.097656 242.636719 1007.070312 242.636719 661.617188 C 242.636719 316.167969 522.683594 36.121094 868.132812 36.121094 C 1213.585938 36.121094 1493.617188 316.167969 1493.617188 661.617188 Z M 1493.617188 661.617188 "/>
</clipPath>
<clipPath id="clip11">
  <path d="M 1010 880 L 1166 880 L 1166 1196 L 1010 1196 Z M 1010 880 "/>
</clipPath>
<clipPath id="clip12">
  <path d="M 1493.617188 661.617188 C 1493.617188 1007.070312 1213.585938 1287.097656 868.132812 1287.097656 C 522.683594 1287.097656 242.636719 1007.070312 242.636719 661.617188 C 242.636719 316.167969 522.683594 36.121094 868.132812 36.121094 C 1213.585938 36.121094 1493.617188 316.167969 1493.617188 661.617188 Z M 1493.617188 661.617188 "/>
</clipPath>
<clipPath id="clip13">
  <path d="M 591 1083 L 665 1083 L 665 1288 L 591 1288 Z M 591 1083 "/>
</clipPath>
<clipPath id="clip14">
  <path d="M 1493.617188 661.617188 C 1493.617188 1007.070312 1213.585938 1287.097656 868.132812 1287.097656 C 522.683594 1287.097656 242.636719 1007.070312 242.636719 661.617188 C 242.636719 316.167969 522.683594 36.121094 868.132812 36.121094 C 1213.585938 36.121094 1493.617188 316.167969 1493.617188 661.617188 Z M 1493.617188 661.617188 "/>
</clipPath>
<clipPath id="clip15">
  <path d="M 588 1080 L 669 1080 L 669 1288 L 588 1288 Z M 588 1080 "/>
</clipPath>
<clipPath id="clip16">
  <path d="M 1493.617188 661.617188 C 1493.617188 1007.070312 1213.585938 1287.097656 868.132812 1287.097656 C 522.683594 1287.097656 242.636719 1007.070312 242.636719 661.617188 C 242.636719 316.167969 522.683594 36.121094 868.132812 36.121094 C 1213.585938 36.121094 1493.617188 316.167969 1493.617188 661.617188 Z M 1493.617188 661.617188 "/>
</clipPath>
<clipPath id="clip17">
  <path d="M 573 884 L 723 884 L 723 1192 L 573 1192 Z M 573 884 "/>
</clipPath>
<clipPath id="clip18">
  <path d="M 1493.617188 661.617188 C 1493.617188 1007.070312 1213.585938 1287.097656 868.132812 1287.097656 C 522.683594 1287.097656 242.636719 1007.070312 242.636719 661.617188 C 242.636719 316.167969 522.683594 36.121094 868.132812 36.121094 C 1213.585938 36.121094 1493.617188 316.167969 1493.617188 661.617188 Z M 1493.617188 661.617188 "/>
</clipPath>
<clipPath id="clip19">
  <path d="M 570 880 L 726 880 L 726 1196 L 570 1196 Z M 570 880 "/>
</clipPath>
<clipPath id="clip20">
  <path d="M 1493.617188 661.617188 C 1493.617188 1007.070312 1213.585938 1287.097656 868.132812 1287.097656 C 522.683594 1287.097656 242.636719 1007.070312 242.636719 661.617188 C 242.636719 316.167969 522.683594 36.121094 868.132812 36.121094 C 1213.585938 36.121094 1493.617188 316.167969 1493.617188 661.617188 Z M 1493.617188 661.617188 "/>
</clipPath>
<clipPath id="clip21">
  <path d="M 675 826 L 1062.421875 826 L 1062.421875 1288 L 675 1288 Z M 675 826 "/>
</clipPath>
<clipPath id="clip22">
  <path d="M 1493.617188 661.617188 C 1493.617188 1007.070312 1213.585938 1287.097656 868.132812 1287.097656 C 522.683594 1287.097656 242.636719 1007.070312 242.636719 661.617188 C 242.636719 316.167969 522.683594 36.121094 868.132812 36.121094 C 1213.585938 36.121094 1493.617188 316.167969 1493.617188 661.617188 Z M 1493.617188 661.617188 "/>
</clipPath>
<clipPath id="clip23">
  <path d="M 671 822 L 1066 822 L 1066 1288 L 671 1288 Z M 671 822 "/>
</clipPath>
<clipPath id="clip24">
  <path d="M 1493.617188 661.617188 C 1493.617188 1007.070312 1213.585938 1287.097656 868.132812 1287.097656 C 522.683594 1287.097656 242.636719 1007.070312 242.636719 661.617188 C 242.636719 316.167969 522.683594 36.121094 868.132812 36.121094 C 1213.585938 36.121094 1493.617188 316.167969 1493.617188 661.617188 Z M 1493.617188 661.617188 "/>
</clipPath>
<clipPath id="clip25">
  <path d="M 810 719 L 931 719 L 931 877 L 810 877 Z M 810 719 "/>
</clipPath>
<clipPath id="clip26">
  <path d="M 1493.617188 661.617188 C 1493.617188 1007.070312 1213.585938 1287.097656 868.132812 1287.097656 C 522.683594 1287.097656 242.636719 1007.070312 242.636719 661.617188 C 242.636719 316.167969 522.683594 36.121094 868.132812 36.121094 C 1213.585938 36.121094 1493.617188 316.167969 1493.617188 661.617188 Z M 1493.617188 661.617188 "/>
</clipPath>
<clipPath id="clip27">
  <path d="M 806 715 L 935 715 L 935 881 L 806 881 Z M 806 715 "/>
</clipPath>
<clipPath id="clip28">
  <path d="M 1493.617188 661.617188 C 1493.617188 1007.070312 1213.585938 1287.097656 868.132812 1287.097656 C 522.683594 1287.097656 242.636719 1007.070312 242.636719 661.617188 C 242.636719 316.167969 522.683594 36.121094 868.132812 36.121094 C 1213.585938 36.121094 1493.617188 316.167969 1493.617188 661.617188 Z M 1493.617188 661.617188 "/>
</clipPath>
<clipPath id="clip29">
  <path d="M 660 525 L 716.769531 525 L 716.769531 615 L 660 615 Z M 660 525 "/>
</clipPath>
<clipPath id="clip30">
  <path d="M 1493.617188 661.617188 C 1493.617188 1007.070312 1213.585938 1287.097656 868.132812 1287.097656 C 522.683594 1287.097656 242.636719 1007.070312 242.636719 661.617188 C 242.636719 316.167969 522.683594 36.121094 868.132812 36.121094 C 1213.585938 36.121094 1493.617188 316.167969 1493.617188 661.617188 Z M 1493.617188 661.617188 "/>
</clipPath>
<clipPath id="clip31">
  <path d="M 657 521.167969 L 720.410156 521.167969 L 720.410156 618 L 657 618 Z M 657 521.167969 "/>
</clipPath>
<clipPath id="clip32">
  <path d="M 1493.617188 661.617188 C 1493.617188 1007.070312 1213.585938 1287.097656 868.132812 1287.097656 C 522.683594 1287.097656 242.636719 1007.070312 242.636719 661.617188 C 242.636719 316.167969 522.683594 36.121094 868.132812 36.121094 C 1213.585938 36.121094 1493.617188 316.167969 1493.617188 661.617188 Z M 1493.617188 661.617188 "/>
</clipPath>
<clipPath id="clip33">
  <path d="M 670 541 L 702 541 L 702 601 L 670 601 Z M 670 541 "/>
</clipPath>
<clipPath id="clip34">
  <path d="M 1493.617188 661.617188 C 1493.617188 1007.070312 1213.585938 1287.097656 868.132812 1287.097656 C 522.683594 1287.097656 242.636719 1007.070312 242.636719 661.617188 C 242.636719 316.167969 522.683594 36.121094 868.132812 36.121094 C 1213.585938 36.121094 1493.617188 316.167969 1493.617188 661.617188 Z M 1493.617188 661.617188 "/>
</clipPath>
<clipPath id="clip35">
  <path d="M 677 546.636719 L 697 546.636719 L 697 574 L 677 574 Z M 677 546.636719 "/>
</clipPath>
<clipPath id="clip36">
  <path d="M 1493.617188 661.617188 C 1493.617188 1007.070312 1213.585938 1287.097656 868.132812 1287.097656 C 522.683594 1287.097656 242.636719 1007.070312 242.636719 661.617188 C 242.636719 316.167969 522.683594 36.121094 868.132812 36.121094 C 1213.585938 36.121094 1493.617188 316.167969 1493.617188 661.617188 Z M 1493.617188 661.617188 "/>
</clipPath>
<clipPath id="clip37">
  <path d="M 1020 525 L 1076.972656 525 L 1076.972656 615 L 1020 615 Z M 1020 525 "/>
</clipPath>
<clipPath id="clip38">
  <path d="M 1493.617188 661.617188 C 1493.617188 1007.070312 1213.585938 1287.097656 868.132812 1287.097656 C 522.683594 1287.097656 242.636719 1007.070312 242.636719 661.617188 C 242.636719 316.167969 522.683594 36.121094 868.132812 36.121094 C 1213.585938 36.121094 1493.617188 316.167969 1493.617188 661.617188 Z M 1493.617188 661.617188 "/>
</clipPath>
<clipPath id="clip39">
  <path d="M 1017 521.167969 L 1080.613281 521.167969 L 1080.613281 618 L 1017 618 Z M 1017 521.167969 "/>
</clipPath>
<clipPath id="clip40">
  <path d="M 1493.617188 661.617188 C 1493.617188 1007.070312 1213.585938 1287.097656 868.132812 1287.097656 C 522.683594 1287.097656 242.636719 1007.070312 242.636719 661.617188 C 242.636719 316.167969 522.683594 36.121094 868.132812 36.121094 C 1213.585938 36.121094 1493.617188 316.167969 1493.617188 661.617188 Z M 1493.617188 661.617188 "/>
</clipPath>
<clipPath id="clip41">
  <path d="M 1035 541 L 1068 541 L 1068 601 L 1035 601 Z M 1035 541 "/>
</clipPath>
<clipPath id="clip42">
  <path d="M 1493.617188 661.617188 C 1493.617188 1007.070312 1213.585938 1287.097656 868.132812 1287.097656 C 522.683594 1287.097656 242.636719 1007.070312 242.636719 661.617188 C 242.636719 316.167969 522.683594 36.121094 868.132812 36.121094 C 1213.585938 36.121094 1493.617188 316.167969 1493.617188 661.617188 Z M 1493.617188 661.617188 "/>
</clipPath>
<clipPath id="clip43">
  <path d="M 1040.589844 546.636719 L 1060 546.636719 L 1060 574 L 1040.589844 574 Z M 1040.589844 546.636719 "/>
</clipPath>
<clipPath id="clip44">
  <path d="M 1493.617188 661.617188 C 1493.617188 1007.070312 1213.585938 1287.097656 868.132812 1287.097656 C 522.683594 1287.097656 242.636719 1007.070312 242.636719 661.617188 C 242.636719 316.167969 522.683594 36.121094 868.132812 36.121094 C 1213.585938 36.121094 1493.617188 316.167969 1493.617188 661.617188 Z M 1493.617188 661.617188 "/>
</clipPath>
<clipPath id="clip45">
  <path d="M 708 330 L 1033 330 L 1033 782 L 708 782 Z M 708 330 "/>
</clipPath>
<clipPath id="clip46">
  <path d="M 1493.617188 661.617188 C 1493.617188 1007.070312 1213.585938 1287.097656 868.132812 1287.097656 C 522.683594 1287.097656 242.636719 1007.070312 242.636719 661.617188 C 242.636719 316.167969 522.683594 36.121094 868.132812 36.121094 C 1213.585938 36.121094 1493.617188 316.167969 1493.617188 661.617188 Z M 1493.617188 661.617188 "/>
</clipPath>
<clipPath id="clip47">
  <path d="M 704 326 L 1036 326 L 1036 786 L 704 786 Z M 704 326 "/>
</clipPath>
<clipPath id="clip48">
  <path d="M 1493.617188 661.617188 C 1493.617188 1007.070312 1213.585938 1287.097656 868.132812 1287.097656 C 522.683594 1287.097656 242.636719 1007.070312 242.636719 661.617188 C 242.636719 316.167969 522.683594 36.121094 868.132812 36.121094 C 1213.585938 36.121094 1493.617188 316.167969 1493.617188 661.617188 Z M 1493.617188 661.617188 "/>
</clipPath>
<clipPath id="clip49">
  <path d="M 817 653 L 922 653 L 922 701 L 817 701 Z M 817 653 "/>
</clipPath>
<clipPath id="clip50">
  <path d="M 1493.617188 661.617188 C 1493.617188 1007.070312 1213.585938 1287.097656 868.132812 1287.097656 C 522.683594 1287.097656 242.636719 1007.070312 242.636719 661.617188 C 242.636719 316.167969 522.683594 36.121094 868.132812 36.121094 C 1213.585938 36.121094 1493.617188 316.167969 1493.617188 661.617188 Z M 1493.617188 661.617188 "/>
</clipPath>
<clipPath id="clip51">
  <path d="M 816 651 L 924 651 L 924 703 L 816 703 Z M 816 651 "/>
</clipPath>
<clipPath id="clip52">
  <path d="M 1493.617188 661.617188 C 1493.617188 1007.070312 1213.585938 1287.097656 868.132812 1287.097656 C 522.683594 1287.097656 242.636719 1007.070312 242.636719 661.617188 C 242.636719 316.167969 522.683594 36.121094 868.132812 36.121094 C 1213.585938 36.121094 1493.617188 316.167969 1493.617188 661.617188 Z M 1493.617188 661.617188 "/>
</clipPath>
<clipPath id="clip53">
  <path d="M 741 462 L 836 462 L 836 488.421875 L 741 488.421875 Z M 741 462 "/>
</clipPath>
<clipPath id="clip54">
  <path d="M 1493.617188 661.617188 C 1493.617188 1007.070312 1213.585938 1287.097656 868.132812 1287.097656 C 522.683594 1287.097656 242.636719 1007.070312 242.636719 661.617188 C 242.636719 316.167969 522.683594 36.121094 868.132812 36.121094 C 1213.585938 36.121094 1493.617188 316.167969 1493.617188 661.617188 Z M 1493.617188 661.617188 "/>
</clipPath>
<clipPath id="clip55">
  <path d="M 899 462 L 994 462 L 994 488.421875 L 899 488.421875 Z M 899 462 "/>
</clipPath>
<clipPath id="clip56">
  <path d="M 1493.617188 661.617188 C 1493.617188 1007.070312 1213.585938 1287.097656 868.132812 1287.097656 C 522.683594 1287.097656 242.636719 1007.070312 242.636719 661.617188 C 242.636719 316.167969 522.683594 36.121094 868.132812 36.121094 C 1213.585938 36.121094 1493.617188 316.167969 1493.617188 661.617188 Z M 1493.617188 661.617188 "/>
</clipPath>
<clipPath id="clip57">
  <path d="M 847 601.214844 L 894 601.214844 L 894 622 L 847 622 Z M 847 601.214844 "/>
</clipPath>
<clipPath id="clip58">
  <path d="M 1493.617188 661.617188 C 1493.617188 1007.070312 1213.585938 1287.097656 868.132812 1287.097656 C 522.683594 1287.097656 242.636719 1007.070312 242.636719 661.617188 C 242.636719 316.167969 522.683594 36.121094 868.132812 36.121094 C 1213.585938 36.121094 1493.617188 316.167969 1493.617188 661.617188 Z M 1493.617188 661.617188 "/>
</clipPath>
<clipPath id="clip59">
  <path d="M 795 529 L 825.921875 529 L 825.921875 583 L 795 583 Z M 795 529 "/>
</clipPath>
<clipPath id="clip60">
  <path d="M 1493.617188 661.617188 C 1493.617188 1007.070312 1213.585938 1287.097656 868.132812 1287.097656 C 522.683594 1287.097656 242.636719 1007.070312 242.636719 661.617188 C 242.636719 316.167969 522.683594 36.121094 868.132812 36.121094 C 1213.585938 36.121094 1493.617188 316.167969 1493.617188 661.617188 Z M 1493.617188 661.617188 "/>
</clipPath>
<clipPath id="clip61">
  <path d="M 915 529 L 945.992188 529 L 945.992188 583 L 915 583 Z M 915 529 "/>
</clipPath>
<clipPath id="clip62">
  <path d="M 1493.617188 661.617188 C 1493.617188 1007.070312 1213.585938 1287.097656 868.132812 1287.097656 C 522.683594 1287.097656 242.636719 1007.070312 242.636719 661.617188 C 242.636719 316.167969 522.683594 36.121094 868.132812 36.121094 C 1213.585938 36.121094 1493.617188 316.167969 1493.617188 661.617188 Z M 1493.617188 661.617188 "/>
</clipPath>
<clipPath id="clip63">
  <path d="M 822.285156 658 L 919 658 L 919 689 L 822.285156 689 Z M 822.285156 658 "/>
</clipPath>
<clipPath id="clip64">
  <path d="M 1493.617188 661.617188 C 1493.617188 1007.070312 1213.585938 1287.097656 868.132812 1287.097656 C 522.683594 1287.097656 242.636719 1007.070312 242.636719 661.617188 C 242.636719 316.167969 522.683594 36.121094 868.132812 36.121094 C 1213.585938 36.121094 1493.617188 316.167969 1493.617188 661.617188 Z M 1493.617188 661.617188 "/>
</clipPath>
<clipPath id="clip65">
  <path d="M 821 656 L 920.523438 656 L 920.523438 691 L 821 691 Z M 821 656 "/>
</clipPath>
<clipPath id="clip66">
  <path d="M 1493.617188 661.617188 C 1493.617188 1007.070312 1213.585938 1287.097656 868.132812 1287.097656 C 522.683594 1287.097656 242.636719 1007.070312 242.636719 661.617188 C 242.636719 316.167969 522.683594 36.121094 868.132812 36.121094 C 1213.585938 36.121094 1493.617188 316.167969 1493.617188 661.617188 Z M 1493.617188 661.617188 "/>
</clipPath>
<clipPath id="clip67">
  <path d="M 822.285156 658 L 836 658 L 836 673.984375 L 822.285156 673.984375 Z M 822.285156 658 "/>
</clipPath>
<clipPath id="clip68">
  <path d="M 1493.617188 661.617188 C 1493.617188 1007.070312 1213.585938 1287.097656 868.132812 1287.097656 C 522.683594 1287.097656 242.636719 1007.070312 242.636719 661.617188 C 242.636719 316.167969 522.683594 36.121094 868.132812 36.121094 C 1213.585938 36.121094 1493.617188 316.167969 1493.617188 661.617188 Z M 1493.617188 661.617188 "/>
</clipPath>
<clipPath id="clip69">
  <path d="M 904 658 L 919 658 L 919 673.984375 L 904 673.984375 Z M 904 658 "/>
</clipPath>
<clipPath id="clip70">
  <path d="M 1493.617188 661.617188 C 1493.617188 1007.070312 1213.585938 1287.097656 868.132812 1287.097656 C 522.683594 1287.097656 242.636719 1007.070312 242.636719 661.617188 C 242.636719 316.167969 522.683594 36.121094 868.132812 36.121094 C 1213.585938 36.121094 1493.617188 316.167969 1493.617188 661.617188 Z M 1493.617188 661.617188 "/>
</clipPath>
<clipPath id="clip71">
  <path d="M 669 266.480469 L 1051.503906 266.480469 L 1051.503906 557 L 669 557 Z M 669 266.480469 "/>
</clipPath>
<clipPath id="clip72">
  <path d="M 1493.617188 661.617188 C 1493.617188 1007.070312 1213.585938 1287.097656 868.132812 1287.097656 C 522.683594 1287.097656 242.636719 1007.070312 242.636719 661.617188 C 242.636719 316.167969 522.683594 36.121094 868.132812 36.121094 C 1213.585938 36.121094 1493.617188 316.167969 1493.617188 661.617188 Z M 1493.617188 661.617188 "/>
</clipPath>
<clipPath id="clip73">
  <path d="M 914 737 L 1042 737 L 1042 1066 L 914 1066 Z M 914 737 "/>
</clipPath>
<clipPath id="clip74">
  <path d="M 1493.617188 661.617188 C 1493.617188 1007.070312 1213.585938 1287.097656 868.132812 1287.097656 C 522.683594 1287.097656 242.636719 1007.070312 242.636719 661.617188 C 242.636719 316.167969 522.683594 36.121094 868.132812 36.121094 C 1213.585938 36.121094 1493.617188 316.167969 1493.617188 661.617188 Z M 1493.617188 661.617188 "/>
</clipPath>
<clipPath id="clip75">
  <path d="M 712 507 L 1033 507 L 1033 615 L 712 615 Z M 712 507 "/>
</clipPath>
<clipPath id="clip76">
  <path d="M 1493.617188 661.617188 C 1493.617188 1007.070312 1213.585938 1287.097656 868.132812 1287.097656 C 522.683594 1287.097656 242.636719 1007.070312 242.636719 661.617188 C 242.636719 316.167969 522.683594 36.121094 868.132812 36.121094 C 1213.585938 36.121094 1493.617188 316.167969 1493.617188 661.617188 Z M 1493.617188 661.617188 "/>
</clipPath>
<clipPath id="clip77">
  <path d="M 710 505 L 1035 505 L 1035 617 L 710 617 Z M 710 505 "/>
</clipPath>
<clipPath id="clip78">
  <path d="M 1493.617188 661.617188 C 1493.617188 1007.070312 1213.585938 1287.097656 868.132812 1287.097656 C 522.683594 1287.097656 242.636719 1007.070312 242.636719 661.617188 C 242.636719 316.167969 522.683594 36.121094 868.132812 36.121094 C 1213.585938 36.121094 1493.617188 316.167969 1493.617188 661.617188 Z M 1493.617188 661.617188 "/>
</clipPath>
<clipPath id="clip79">
  <path d="M 233.589844 27.070312 L 1502.585938 27.070312 L 1502.585938 1296 L 233.589844 1296 Z M 233.589844 27.070312 "/>
</clipPath>
</defs>
<g id="surface1">
<rect x="0" y="0" width="1728" height="1295.99994" style="fill:rgb(100%,100%,100%);fill-opacity:1;stroke:none;"/>
<rect x="0" y="0" width="1728" height="1295.99994" style="fill:rgb(100%,100%,100%);fill-opacity:1;stroke:none;"/>
<rect x="0" y="0" width="1728" height="1295.99994" style="fill:rgb(100%,100%,100%);fill-opacity:1;stroke:none;"/>
<g clip-path="url(#clip1)" clip-rule="nonzero">
<g clip-path="url(#clip2)" clip-rule="nonzero">
<path style=" stroke:none;fill-rule:nonzero;fill:rgb(100%,100%,100%);fill-opacity:1;" d="M 1493.617188 661.617188 C 1493.617188 1007.070312 1213.585938 1287.097656 868.132812 1287.097656 C 522.683594 1287.097656 242.636719 1007.070312 242.636719 661.617188 C 242.636719 316.167969 522.683594 36.121094 868.132812 36.121094 C 1213.585938 36.121094 1493.617188 316.167969 1493.617188 661.617188 "/>
<path style=" stroke:none;fill-rule:nonzero;fill:rgb(13.729858%,12.159729%,12.548828%);fill-opacity:1;" d="M 1493.617188 661.617188 L 1482.699219 661.617188 C 1482.699219 831.359375 1413.925781 984.925781 1302.699219 1096.179688 C 1191.441406 1207.410156 1037.875 1276.183594 868.132812 1276.183594 C 698.378906 1276.183594 544.8125 1207.410156 433.554688 1096.179688 C 322.328125 984.925781 253.566406 831.359375 253.554688 661.617188 C 253.566406 491.863281 322.328125 338.296875 433.554688 227.039062 C 544.8125 115.8125 698.378906 47.035156 868.132812 47.035156 C 1037.875 47.035156 1191.441406 115.8125 1302.699219 227.039062 C 1413.925781 338.296875 1482.699219 491.863281 1482.699219 661.617188 L 1504.53125 661.617188 C 1504.53125 310.125 1219.613281 25.207031 868.132812 25.207031 C 516.644531 25.207031 231.738281 310.125 231.722656 661.617188 C 231.738281 1013.09375 516.644531 1298.015625 868.132812 1298.015625 C 1219.613281 1298.015625 1504.53125 1013.09375 1504.53125 661.617188 L 1493.617188 661.617188 "/>
</g>
</g>
<g clip-path="url(#clip3)" clip-rule="nonzero">
<g clip-path="url(#clip4)" clip-rule="nonzero">
<path style=" stroke:none;fill-rule:nonzero;fill:rgb(13.729858%,12.159729%,12.548828%);fill-opacity:1;" d="M 780.726562 284.855469 C 780.726562 284.855469 722.511719 246.652344 780.726562 186.617188 C 838.941406 126.585938 999.984375 188.4375 930.386719 284.855469 L 780.726562 284.855469 "/>
</g>
</g>
<g clip-path="url(#clip5)" clip-rule="nonzero">
<g clip-path="url(#clip6)" clip-rule="nonzero">
<path style=" stroke:none;fill-rule:nonzero;fill:rgb(100%,100%,100%);fill-opacity:1;" d="M 1127.484375 1366.492188 C 1135.304688 1236.390625 1143.902344 1083.988281 1143.902344 1083.988281 L 1071.160156 1145.742188 C 1072.554688 1169.078125 1075.679688 1271.507812 1078.425781 1366.492188 L 1127.484375 1366.492188 "/>
</g>
</g>
<g clip-path="url(#clip7)" clip-rule="nonzero">
<g clip-path="url(#clip8)" clip-rule="nonzero">
<path style=" stroke:none;fill-rule:nonzero;fill:rgb(13.729858%,12.159729%,12.548828%);fill-opacity:1;" d="M 1127.484375 1366.492188 L 1131.109375 1366.703125 C 1138.941406 1236.601562 1147.527344 1084.1875 1147.527344 1084.1875 C 1147.609375 1082.738281 1146.828125 1081.386719 1145.523438 1080.734375 C 1144.214844 1080.078125 1142.664062 1080.261719 1141.542969 1081.214844 L 1068.800781 1142.96875 C 1067.933594 1143.707031 1067.453125 1144.816406 1067.523438 1145.953125 C 1068.902344 1169.136719 1072.042969 1271.636719 1074.785156 1366.589844 C 1074.84375 1368.550781 1076.460938 1370.128906 1078.425781 1370.128906 L 1127.484375 1370.128906 C 1129.390625 1370.128906 1130.996094 1368.621094 1131.109375 1366.703125 L 1127.484375 1366.492188 L 1127.484375 1362.851562 L 1078.425781 1362.851562 L 1078.425781 1366.492188 L 1082.0625 1366.390625 C 1079.320312 1271.367188 1076.191406 1169.035156 1074.785156 1145.527344 L 1071.160156 1145.742188 L 1073.507812 1148.511719 L 1146.246094 1086.757812 L 1143.902344 1083.988281 L 1140.261719 1083.789062 C 1140.261719 1083.789062 1140.136719 1086.160156 1139.878906 1090.582031 C 1138.132812 1121.535156 1130.699219 1252.449219 1123.847656 1366.261719 L 1127.484375 1366.492188 L 1127.484375 1362.851562 L 1127.484375 1366.492188 "/>
</g>
</g>
<g clip-path="url(#clip9)" clip-rule="nonzero">
<g clip-path="url(#clip10)" clip-rule="nonzero">
<path style=" stroke:none;fill-rule:nonzero;fill:rgb(100%,100%,100%);fill-opacity:1;" d="M 1057.671875 884.472656 C 1057.671875 884.472656 1108.242188 901.355469 1128.863281 943.808594 C 1149.472656 986.246094 1162.292969 1148.613281 1162.292969 1148.613281 C 1162.292969 1148.613281 1145.835938 1210.621094 1042.75 1186.359375 C 1042.75 1186.359375 969.511719 888.207031 1057.671875 884.472656 "/>
</g>
</g>
<g clip-path="url(#clip11)" clip-rule="nonzero">
<g clip-path="url(#clip12)" clip-rule="nonzero">
<path style=" stroke:none;fill-rule:nonzero;fill:rgb(13.729858%,12.159729%,12.548828%);fill-opacity:1;" d="M 1057.671875 884.472656 L 1056.523438 887.925781 L 1056.636719 887.953125 C 1057.945312 888.40625 1070.464844 892.855469 1085.003906 902.195312 C 1099.558594 911.515625 1116.03125 925.703125 1125.582031 945.398438 C 1127.996094 950.359375 1130.414062 957.382812 1132.703125 965.753906 C 1140.730469 995.101562 1147.269531 1041.023438 1151.746094 1079.4375 C 1153.976562 1098.667969 1155.710938 1116.035156 1156.890625 1128.601562 C 1157.472656 1134.867188 1157.914062 1139.957031 1158.214844 1143.46875 C 1158.511719 1146.964844 1158.667969 1148.894531 1158.667969 1148.894531 L 1162.292969 1148.613281 L 1158.78125 1147.675781 L 1159.335938 1147.832031 L 1158.78125 1147.675781 L 1159.335938 1147.832031 L 1158.78125 1147.675781 C 1158.710938 1147.929688 1155.796875 1158.164062 1145.480469 1168.210938 C 1135.132812 1178.230469 1117.4375 1188.320312 1086.695312 1188.351562 C 1074.488281 1188.351562 1060.21875 1186.730469 1043.589844 1182.820312 L 1042.75 1186.359375 L 1046.289062 1185.492188 C 1046.273438 1185.492188 1045.847656 1183.71875 1045.066406 1180.378906 C 1039.625 1157.070312 1017.820312 1058.519531 1017.851562 981.941406 C 1017.835938 955.632812 1020.449219 931.941406 1026.917969 915.113281 C 1030.144531 906.699219 1034.28125 900.0625 1039.339844 895.527344 C 1044.414062 891.007812 1050.324219 888.4375 1057.828125 888.109375 L 1057.671875 884.472656 L 1056.523438 887.925781 L 1057.671875 884.472656 L 1057.515625 880.832031 C 1048.464844 881.1875 1040.660156 884.527344 1034.480469 890.113281 C 1025.183594 898.511719 1019.355469 911.515625 1015.691406 927.320312 C 1012.023438 943.125 1010.574219 961.84375 1010.574219 981.941406 C 1010.574219 1026.441406 1017.75 1077.675781 1024.898438 1117.882812 C 1032.046875 1158.0625 1039.199219 1187.183594 1039.210938 1187.226562 C 1039.539062 1188.5625 1040.574219 1189.601562 1041.910156 1189.898438 C 1059.007812 1193.921875 1073.832031 1195.628906 1086.695312 1195.628906 C 1119.554688 1195.667969 1139.59375 1184.386719 1151.09375 1172.886719 C 1162.621094 1161.390625 1165.703125 1149.933594 1165.816406 1149.550781 C 1165.917969 1149.152344 1165.960938 1148.726562 1165.917969 1148.328125 C 1165.917969 1148.285156 1162.71875 1107.664062 1156.921875 1061.671875 C 1154.019531 1038.675781 1150.480469 1014.332031 1146.359375 993.027344 C 1144.285156 982.367188 1142.082031 972.460938 1139.722656 963.832031 C 1137.363281 955.207031 1134.863281 947.859375 1132.132812 942.214844 C 1121.375 920.101562 1103.027344 904.894531 1087.464844 895.128906 C 1071.886719 885.394531 1059.007812 881.089844 1058.824219 881.015625 C 1058.414062 880.875 1057.957031 880.816406 1057.515625 880.832031 L 1057.671875 884.472656 "/>
</g>
</g>
<g clip-path="url(#clip13)" clip-rule="nonzero">
<g clip-path="url(#clip14)" clip-rule="nonzero">
<path style=" stroke:none;fill-rule:nonzero;fill:rgb(100%,100%,100%);fill-opacity:1;" d="M 657.433594 1366.492188 C 660.175781 1271.507812 663.304688 1169.078125 664.695312 1145.742188 L 591.957031 1083.988281 C 591.957031 1083.988281 600.554688 1236.390625 608.371094 1366.492188 L 657.433594 1366.492188 "/>
</g>
</g>
<g clip-path="url(#clip15)" clip-rule="nonzero">
<g clip-path="url(#clip16)" clip-rule="nonzero">
<path style=" stroke:none;fill-rule:nonzero;fill:rgb(13.729858%,12.159729%,12.548828%);fill-opacity:1;" d="M 657.433594 1366.492188 L 661.058594 1366.589844 C 663.800781 1271.636719 666.941406 1169.136719 668.335938 1145.953125 C 668.390625 1144.816406 667.921875 1143.707031 667.054688 1142.96875 L 594.316406 1081.214844 C 593.207031 1080.277344 591.628906 1080.078125 590.335938 1080.734375 C 589.042969 1081.371094 588.246094 1082.75 588.316406 1084.1875 C 588.316406 1084.1875 596.914062 1236.601562 604.746094 1366.703125 C 604.859375 1368.621094 606.453125 1370.128906 608.371094 1370.128906 L 657.433594 1370.128906 C 659.394531 1370.128906 661.015625 1368.550781 661.058594 1366.589844 L 657.433594 1366.492188 L 657.433594 1362.851562 L 608.371094 1362.851562 L 608.371094 1366.492188 L 612.007812 1366.261719 C 608.085938 1301.226562 603.992188 1230.605469 600.867188 1176.242188 C 599.304688 1149.066406 597.980469 1125.941406 597.058594 1109.625 C 596.589844 1101.46875 596.21875 1095.003906 595.976562 1090.582031 C 595.722656 1086.160156 595.578125 1083.789062 595.578125 1083.789062 L 591.957031 1083.988281 L 589.597656 1086.757812 L 662.335938 1148.511719 L 664.695312 1145.742188 L 661.058594 1145.527344 C 659.664062 1169.035156 656.539062 1271.367188 653.792969 1366.390625 L 657.433594 1366.492188 L 657.433594 1362.851562 L 657.433594 1366.492188 "/>
</g>
</g>
<g clip-path="url(#clip17)" clip-rule="nonzero">
<g clip-path="url(#clip18)" clip-rule="nonzero">
<path style=" stroke:none;fill-rule:nonzero;fill:rgb(100%,100%,100%);fill-opacity:1;" d="M 678.582031 884.472656 C 678.582031 884.472656 628.011719 901.355469 607.40625 943.808594 C 586.78125 986.246094 573.960938 1148.613281 573.960938 1148.613281 C 573.960938 1148.613281 590.421875 1210.621094 693.503906 1186.359375 C 693.503906 1186.359375 766.742188 888.207031 678.582031 884.472656 "/>
</g>
</g>
<g clip-path="url(#clip19)" clip-rule="nonzero">
<g clip-path="url(#clip20)" clip-rule="nonzero">
<path style=" stroke:none;fill-rule:nonzero;fill:rgb(13.729858%,12.159729%,12.548828%);fill-opacity:1;" d="M 678.582031 884.472656 L 677.429688 881.015625 C 677.246094 881.089844 664.367188 885.394531 648.792969 895.128906 C 633.230469 904.894531 614.878906 920.101562 604.121094 942.214844 C 601.394531 947.859375 598.890625 955.207031 596.53125 963.832031 C 588.304688 993.992188 581.792969 1040 577.289062 1078.601562 C 572.796875 1117.1875 570.339844 1148.300781 570.339844 1148.328125 C 570.296875 1148.726562 570.339844 1149.152344 570.4375 1149.550781 C 570.550781 1149.933594 573.636719 1161.390625 585.160156 1172.886719 C 596.660156 1184.386719 616.699219 1195.667969 649.558594 1195.628906 C 662.421875 1195.628906 677.246094 1193.921875 694.34375 1189.898438 C 695.664062 1189.601562 696.714844 1188.5625 697.042969 1187.226562 C 697.058594 1187.183594 704.207031 1158.0625 711.355469 1117.882812 C 718.519531 1077.675781 725.683594 1026.441406 725.683594 981.941406 C 725.667969 955.148438 723.125 930.816406 716.132812 912.511719 C 712.621094 903.375 707.988281 895.699219 701.777344 890.113281 C 695.59375 884.527344 687.792969 881.1875 678.738281 880.832031 C 678.296875 880.816406 677.84375 880.875 677.429688 881.015625 L 678.582031 884.472656 L 678.425781 888.109375 C 685.929688 888.4375 691.839844 891.007812 696.914062 895.527344 C 704.503906 902.308594 710.019531 913.933594 713.488281 928.957031 C 716.957031 943.949219 718.40625 962.214844 718.40625 981.941406 C 718.40625 1025.671875 711.3125 1076.640625 704.191406 1116.605469 C 700.640625 1136.589844 697.085938 1153.828125 694.414062 1166.050781 C 693.078125 1172.175781 691.96875 1177.035156 691.1875 1180.378906 C 690.421875 1183.71875 689.980469 1185.492188 689.980469 1185.492188 L 693.503906 1186.359375 L 692.679688 1182.820312 C 676.039062 1186.730469 661.769531 1188.351562 649.558594 1188.351562 C 618.335938 1188.320312 600.570312 1177.902344 590.292969 1167.726562 C 585.160156 1162.609375 581.9375 1157.523438 580.003906 1153.726562 C 579.035156 1151.839844 578.398438 1150.273438 578 1149.207031 C 577.800781 1148.683594 577.65625 1148.269531 577.574219 1148 L 577.488281 1147.730469 L 577.472656 1147.675781 L 576.804688 1147.859375 L 577.472656 1147.675781 L 576.804688 1147.859375 L 577.472656 1147.675781 L 573.960938 1148.613281 L 577.585938 1148.894531 C 577.585938 1148.894531 577.785156 1146.378906 578.183594 1141.859375 C 579.535156 1126.070312 583.242188 1085.960938 588.84375 1045.230469 C 591.644531 1024.863281 594.910156 1004.339844 598.605469 986.660156 C 602.273438 969.007812 606.425781 954.113281 610.671875 945.398438 C 620.535156 925.0625 637.777344 910.609375 652.65625 901.3125 C 660.089844 896.652344 666.898438 893.28125 671.832031 891.09375 C 674.304688 890 676.308594 889.203125 677.671875 888.679688 C 678.355469 888.421875 678.878906 888.222656 679.234375 888.09375 L 679.617188 887.953125 L 679.734375 887.925781 L 678.582031 884.472656 L 678.425781 888.109375 L 678.582031 884.472656 "/>
</g>
</g>
<g clip-path="url(#clip21)" clip-rule="nonzero">
<g clip-path="url(#clip22)" clip-rule="nonzero">
<path style=" stroke:none;fill-rule:nonzero;fill:rgb(100%,100%,100%);fill-opacity:1;" d="M 1018.816406 1366.492188 C 1038.019531 1186.828125 1066.101562 912.695312 1061.695312 886.800781 C 1061.695312 886.800781 947.183594 838.28125 927.34375 826.15625 L 868.800781 837.980469 L 810.261719 826.15625 C 790.421875 838.28125 675.910156 886.800781 675.910156 886.800781 C 671.503906 912.695312 699.585938 1186.828125 718.789062 1366.492188 L 1018.816406 1366.492188 "/>
</g>
</g>
<g clip-path="url(#clip23)" clip-rule="nonzero">
<g clip-path="url(#clip24)" clip-rule="nonzero">
<path style=" stroke:none;fill-rule:nonzero;fill:rgb(13.729858%,12.159729%,12.548828%);fill-opacity:1;" d="M 1018.816406 1366.492188 L 1022.441406 1366.875 C 1031.351562 1283.433594 1042.183594 1179.59375 1050.792969 1089.714844 C 1055.101562 1044.761719 1058.839844 1003.300781 1061.511719 969.617188 C 1064.183594 935.890625 1065.789062 910.023438 1065.789062 895.96875 C 1065.789062 891.632812 1065.660156 888.480469 1065.277344 886.191406 C 1065.0625 884.96875 1064.253906 883.945312 1063.101562 883.460938 C 1063.101562 883.460938 1061.328125 882.695312 1058.15625 881.34375 C 1047.070312 876.625 1019.074219 864.644531 991.699219 852.535156 C 978.011719 846.480469 964.480469 840.382812 953.3125 835.167969 C 942.152344 829.953125 933.269531 825.53125 929.234375 823.058594 C 928.453125 822.574219 927.515625 822.417969 926.621094 822.601562 L 868.800781 834.273438 L 810.984375 822.601562 C 810.089844 822.417969 809.152344 822.574219 808.371094 823.058594 C 806.082031 824.449219 802.160156 826.527344 797.183594 828.984375 C 779.703125 837.625 748.992188 851.269531 722.695312 862.726562 C 709.550781 868.453125 697.5 873.625 688.730469 877.378906 C 684.351562 879.269531 680.785156 880.777344 678.324219 881.828125 C 675.867188 882.878906 674.503906 883.460938 674.503906 883.460938 C 673.351562 883.945312 672.539062 884.96875 672.328125 886.191406 C 671.945312 888.480469 671.816406 891.632812 671.816406 895.96875 C 671.816406 910.023438 673.421875 935.90625 676.09375 969.605469 C 684.109375 1070.683594 701.789062 1241.691406 715.164062 1366.875 C 715.363281 1368.722656 716.941406 1370.128906 718.789062 1370.128906 L 1018.816406 1370.128906 C 1020.679688 1370.128906 1022.242188 1368.722656 1022.441406 1366.875 L 1018.816406 1366.492188 L 1018.816406 1362.851562 L 718.789062 1362.851562 L 718.789062 1366.492188 L 722.414062 1366.105469 C 713.488281 1282.664062 702.65625 1178.855469 694.058594 1089.019531 C 689.753906 1044.09375 686.015625 1002.664062 683.34375 969.035156 C 680.671875 935.421875 679.09375 909.542969 679.09375 895.96875 C 679.078125 891.847656 679.25 888.820312 679.503906 887.414062 L 675.910156 886.800781 L 677.332031 890.15625 C 677.34375 890.15625 705.984375 878.019531 737.109375 864.359375 C 752.671875 857.539062 768.859375 850.332031 782.433594 844.050781 C 789.210938 840.921875 795.335938 838.023438 800.410156 835.507812 C 805.484375 832.992188 809.492188 830.902344 812.164062 829.269531 L 810.261719 826.15625 L 809.550781 829.722656 L 868.078125 841.550781 C 868.5625 841.648438 869.042969 841.648438 869.527344 841.550781 L 928.054688 829.722656 L 927.34375 826.15625 L 925.441406 829.269531 C 928.113281 830.902344 932.121094 832.992188 937.195312 835.507812 C 954.945312 844.277344 985.660156 857.921875 1012.007812 869.390625 C 1038.34375 880.859375 1060.261719 890.15625 1060.273438 890.15625 L 1061.695312 886.800781 L 1058.101562 887.414062 C 1058.355469 888.804688 1058.527344 891.847656 1058.511719 895.96875 C 1058.511719 909.527344 1056.933594 935.421875 1054.261719 969.035156 C 1046.261719 1069.929688 1028.566406 1240.949219 1015.207031 1366.105469 L 1018.816406 1366.492188 L 1018.816406 1362.851562 L 1018.816406 1366.492188 "/>
</g>
</g>
<g clip-path="url(#clip25)" clip-rule="nonzero">
<g clip-path="url(#clip26)" clip-rule="nonzero">
<path style=" stroke:none;fill-rule:nonzero;fill:rgb(100%,100%,100%);fill-opacity:1;" d="M 916.046875 719.433594 L 870.394531 738.535156 L 824.730469 719.433594 C 824.730469 719.433594 821.132812 810.394531 810.390625 831.316406 C 810.390625 831.316406 840.703125 874.976562 870.394531 876.796875 C 900.070312 874.976562 930.386719 831.316406 930.386719 831.316406 C 919.640625 810.394531 916.046875 719.433594 916.046875 719.433594 "/>
</g>
</g>
<g clip-path="url(#clip27)" clip-rule="nonzero">
<g clip-path="url(#clip28)" clip-rule="nonzero">
<path style=" stroke:none;fill-rule:nonzero;fill:rgb(13.729858%,12.159729%,12.548828%);fill-opacity:1;" d="M 916.046875 719.433594 L 914.636719 716.082031 L 870.394531 734.597656 L 826.136719 716.082031 C 825.042969 715.625 823.777344 715.738281 822.78125 716.378906 C 821.773438 717.019531 821.148438 718.113281 821.089844 719.292969 C 821.089844 719.304688 821.035156 720.699219 820.921875 723.214844 C 820.507812 732.027344 819.3125 754.398438 817.070312 776.769531 C 815.945312 787.9375 814.554688 799.136719 812.875 808.589844 C 812.039062 813.308594 811.128906 817.601562 810.148438 821.210938 C 809.195312 824.820312 808.144531 827.75 807.164062 829.652344 C 806.539062 830.859375 806.636719 832.296875 807.402344 833.390625 C 807.488281 833.503906 815.164062 844.5625 826.703125 855.976562 C 832.488281 861.675781 839.226562 867.472656 846.574219 872.019531 C 853.921875 876.570312 861.882812 879.921875 870.167969 880.433594 L 870.609375 880.433594 C 878.894531 879.921875 886.851562 876.570312 894.199219 872.019531 C 905.199219 865.183594 914.910156 855.578125 921.945312 847.644531 C 928.980469 839.730469 933.3125 833.476562 933.371094 833.390625 C 934.136719 832.296875 934.238281 830.859375 933.613281 829.652344 C 932.488281 827.476562 931.296875 823.953125 930.214844 819.617188 C 926.378906 804.382812 923.691406 779.140625 922.027344 757.90625 C 921.203125 747.277344 920.609375 737.613281 920.238281 730.621094 C 920.039062 727.125 919.898438 724.28125 919.8125 722.320312 C 919.726562 720.371094 919.683594 719.292969 919.683594 719.292969 C 919.625 718.097656 919 717.019531 917.992188 716.363281 C 916.996094 715.738281 915.734375 715.625 914.636719 716.082031 L 916.046875 719.433594 L 912.40625 719.589844 C 912.40625 719.617188 913.316406 742.402344 915.5625 767.855469 C 916.683594 780.589844 918.148438 793.980469 920.023438 805.589844 C 920.949219 811.402344 921.984375 816.761719 923.152344 821.394531 C 924.332031 826.027344 925.582031 829.9375 927.144531 832.980469 L 930.386719 831.316406 L 927.386719 829.253906 L 927.316406 829.355469 C 926.503906 830.519531 918.800781 841.277344 907.914062 851.808594 C 902.472656 857.082031 896.234375 862.285156 889.738281 866.222656 C 883.242188 870.171875 876.519531 872.789062 870.167969 873.171875 L 870.394531 876.796875 L 870.609375 873.171875 C 864.054688 872.773438 857.105469 869.988281 850.410156 865.839844 C 840.378906 859.628906 831.027344 850.433594 824.273438 842.8125 C 820.890625 839.003906 818.164062 835.59375 816.273438 833.148438 C 815.335938 831.914062 814.597656 830.933594 814.113281 830.265625 C 813.871094 829.921875 813.6875 829.667969 813.558594 829.496094 L 813.386719 829.253906 L 810.390625 831.316406 L 813.628906 832.980469 C 815.191406 829.9375 816.457031 826.027344 817.625 821.394531 C 821.671875 805.207031 824.304688 779.910156 825.996094 758.476562 C 827.671875 737.058594 828.367188 719.617188 828.367188 719.578125 L 824.730469 719.433594 L 823.324219 722.800781 L 868.988281 741.90625 C 869.882812 742.273438 870.890625 742.273438 871.789062 741.90625 L 917.453125 722.800781 L 916.046875 719.433594 L 912.40625 719.589844 L 916.046875 719.433594 "/>
</g>
</g>
<g clip-path="url(#clip29)" clip-rule="nonzero">
<g clip-path="url(#clip30)" clip-rule="nonzero">
<path style=" stroke:none;fill-rule:nonzero;fill:rgb(100%,100%,100%);fill-opacity:1;" d="M 715.789062 565.113281 C 719.828125 589.617188 710.984375 611.460938 696.019531 613.933594 C 681.070312 616.40625 665.660156 598.554688 661.625 574.054688 C 657.574219 549.566406 666.429688 527.707031 681.382812 525.234375 C 696.347656 522.761719 711.738281 540.625 715.789062 565.113281 "/>
</g>
</g>
<g clip-path="url(#clip31)" clip-rule="nonzero">
<g clip-path="url(#clip32)" clip-rule="nonzero">
<path style=" stroke:none;fill-rule:nonzero;fill:rgb(13.729858%,12.159729%,12.548828%);fill-opacity:1;" d="M 715.789062 565.113281 L 712.195312 565.710938 C 712.832031 569.519531 713.132812 573.273438 713.132812 576.867188 C 713.132812 586.050781 711.15625 594.234375 707.902344 600.132812 C 706.265625 603.089844 704.347656 605.464844 702.246094 607.167969 C 700.140625 608.875 697.894531 609.925781 695.4375 610.339844 C 694.710938 610.464844 693.972656 610.523438 693.234375 610.523438 C 690.476562 610.523438 687.632812 609.683594 684.765625 607.992188 C 680.457031 605.464844 676.207031 600.972656 672.726562 595.003906 C 669.257812 589.046875 666.558594 581.65625 665.207031 573.457031 C 664.582031 569.632812 664.285156 565.894531 664.285156 562.300781 C 664.269531 553.117188 666.246094 544.917969 669.515625 539.019531 C 671.132812 536.078125 673.066406 533.691406 675.15625 532 C 677.273438 530.292969 679.519531 529.226562 681.976562 528.828125 C 682.71875 528.703125 683.441406 528.644531 684.167969 528.644531 C 686.925781 528.644531 689.765625 529.484375 692.636719 531.175781 C 696.945312 533.703125 701.207031 538.195312 704.675781 544.152344 C 708.15625 550.105469 710.84375 557.511719 712.195312 565.710938 L 719.386719 564.515625 C 717.382812 552.480469 712.789062 541.917969 706.664062 534.171875 C 703.59375 530.308594 700.140625 527.152344 696.347656 524.90625 C 692.566406 522.660156 688.429688 521.367188 684.167969 521.367188 C 683.042969 521.367188 681.90625 521.453125 680.785156 521.636719 C 676.988281 522.261719 673.523438 523.941406 670.566406 526.34375 C 666.132812 529.964844 662.777344 535.183594 660.488281 541.335938 C 658.214844 547.492188 657.007812 554.640625 657.007812 562.300781 C 657.007812 566.292969 657.332031 570.445312 658.03125 574.652344 C 660.019531 586.6875 664.609375 597.25 670.734375 604.980469 C 673.804688 608.847656 677.273438 612.015625 681.054688 614.261719 C 684.835938 616.492188 688.984375 617.800781 693.234375 617.800781 C 694.355469 617.800781 695.480469 617.714844 696.617188 617.515625 C 700.410156 616.90625 703.878906 615.226562 706.835938 612.8125 C 711.285156 609.203125 714.625 603.984375 716.914062 597.832031 C 719.1875 591.675781 720.394531 584.527344 720.410156 576.867188 C 720.410156 572.875 720.066406 568.722656 719.386719 564.515625 L 715.789062 565.113281 "/>
</g>
</g>
<g clip-path="url(#clip33)" clip-rule="nonzero">
<g clip-path="url(#clip34)" clip-rule="nonzero">
<path style=" stroke:none;fill-rule:nonzero;fill:rgb(13.729858%,12.159729%,12.548828%);fill-opacity:1;" d="M 670.863281 565.15625 C 670.265625 562.46875 670.167969 559.640625 670.59375 556.886719 C 670.765625 555.492188 671.105469 554.113281 671.601562 552.792969 C 672.085938 551.46875 672.710938 550.175781 673.550781 549.011719 C 673.917969 548.398438 674.375 547.847656 674.886719 547.335938 C 675.371094 546.808594 675.839844 546.253906 676.421875 545.839844 C 677.5 544.875 678.75 544.152344 680.003906 543.441406 C 681.308594 542.871094 682.589844 542.230469 684.011719 541.875 C 685.359375 541.519531 687.050781 541.351562 688.53125 541.675781 C 691.65625 542.230469 694.074219 544.546875 695.609375 546.980469 C 697.214844 549.421875 698.222656 552.109375 699.046875 554.808594 C 699.859375 557.511719 700.425781 560.265625 700.839844 563.023438 C 701.050781 564.417969 701.234375 565.796875 701.378906 567.1875 C 701.519531 568.554688 701.605469 570.015625 701.664062 571.3125 L 701.664062 571.351562 C 701.691406 571.921875 701.351562 572.40625 700.851562 572.605469 C 698.875 573.371094 696.859375 574.308594 695.011719 575.390625 C 693.207031 576.457031 691.316406 577.75 690.476562 579.253906 C 690.066406 580.007812 690.078125 580.578125 690.519531 581.21875 C 690.960938 581.871094 691.8125 582.4375 692.695312 582.9375 C 694.542969 583.875 696.644531 584.5 698.734375 585.082031 L 698.820312 585.109375 C 699.273438 585.238281 699.558594 585.664062 699.53125 586.121094 C 699.289062 589.019531 698.777344 591.804688 697.78125 594.546875 C 697.269531 595.898438 696.632812 597.234375 695.679688 598.429688 C 694.742188 599.59375 693.347656 600.574219 691.757812 600.789062 C 690.976562 600.902344 690.191406 600.800781 689.453125 600.644531 C 688.742188 600.433594 688.046875 600.175781 687.40625 599.835938 C 686.128906 599.152344 684.976562 598.300781 683.925781 597.347656 C 681.808594 595.484375 680.015625 593.339844 678.339844 591.125 C 680.246094 593.140625 682.207031 595.117188 684.378906 596.792969 C 685.460938 597.648438 686.625 598.371094 687.847656 598.910156 C 689.054688 599.453125 690.363281 599.734375 691.558594 599.496094 C 693.988281 599.054688 695.410156 596.46875 696.191406 593.992188 C 697 591.449219 697.371094 588.691406 697.46875 586.050781 L 698.25 587.085938 C 696.035156 586.589844 693.832031 585.964844 691.671875 584.914062 C 690.621094 584.328125 689.511719 583.691406 688.65625 582.511719 C 688.203125 581.957031 687.933594 581.144531 687.875 580.351562 C 687.875 579.566406 688.0625 578.785156 688.402344 578.191406 C 689.796875 575.773438 691.828125 574.550781 693.773438 573.300781 C 695.777344 572.105469 697.796875 571.125 699.957031 570.246094 L 699.148438 571.539062 L 698.835938 567.429688 C 698.71875 566.082031 698.5625 564.730469 698.378906 563.394531 C 698.011719 560.707031 697.5 558.050781 696.789062 555.464844 C 696.046875 552.90625 695.109375 550.375 693.730469 548.1875 C 692.367188 546 690.464844 544.222656 688.105469 543.667969 C 686.894531 543.367188 685.757812 543.398438 684.449219 543.679688 C 683.199219 543.921875 681.949219 544.476562 680.726562 544.933594 C 679.5625 545.542969 678.382812 546.140625 677.359375 546.980469 C 676.804688 547.335938 676.363281 547.832031 675.894531 548.285156 C 675.398438 548.726562 674.972656 549.222656 674.585938 549.777344 C 673.75 550.789062 673.082031 551.953125 672.539062 553.175781 C 671.972656 554.382812 671.546875 555.675781 671.277344 557.011719 C 670.707031 559.65625 670.550781 562.429688 670.863281 565.15625 "/>
</g>
</g>
<g clip-path="url(#clip35)" clip-rule="nonzero">
<g clip-path="url(#clip36)" clip-rule="nonzero">
<path style=" stroke:none;fill-rule:nonzero;fill:rgb(13.729858%,12.159729%,12.548828%);fill-opacity:1;" d="M 678.46875 573.597656 C 678.46875 573.597656 678 571.425781 677.871094 568.085938 C 677.800781 566.421875 677.828125 564.460938 678.097656 562.355469 C 678.339844 560.265625 678.921875 558.050781 679.816406 555.933594 C 680.328125 554.894531 680.855469 553.84375 681.550781 552.917969 C 682.289062 552.039062 682.972656 551.085938 683.898438 550.445312 C 684.335938 550.089844 684.765625 549.734375 685.191406 549.394531 C 685.671875 549.140625 686.128906 548.898438 686.597656 548.671875 C 687.050781 548.429688 687.507812 548.199219 687.933594 547.972656 C 688.402344 547.847656 688.84375 547.71875 689.269531 547.605469 C 690.136719 547.390625 690.933594 547.0625 691.644531 547.019531 C 692.351562 546.949219 692.980469 546.894531 693.492188 546.851562 C 694.527344 546.75 695.125 546.695312 695.125 546.695312 C 695.949219 546.625 696.703125 547.25 696.773438 548.085938 C 696.84375 548.925781 696.21875 549.664062 695.378906 549.734375 L 695.265625 549.75 L 695.023438 549.75 C 695.023438 549.75 694.511719 549.75 693.617188 549.75 C 693.164062 549.75 692.609375 549.765625 691.984375 549.765625 C 691.34375 549.75 690.675781 549.976562 689.921875 550.089844 C 689.539062 550.164062 689.15625 550.234375 688.742188 550.304688 C 688.375 550.460938 687.976562 550.617188 687.578125 550.789062 C 687.164062 550.957031 686.753906 551.113281 686.328125 551.285156 C 685.957031 551.554688 685.574219 551.8125 685.175781 552.082031 C 684.324219 552.550781 683.699219 553.332031 682.972656 554.042969 C 682.289062 554.796875 681.738281 555.707031 681.183594 556.601562 C 680.203125 558.476562 679.460938 560.523438 679.050781 562.527344 C 678.609375 564.515625 678.425781 566.4375 678.339844 568.085938 C 678.183594 571.394531 678.46875 573.597656 678.46875 573.597656 "/>
</g>
</g>
<g clip-path="url(#clip37)" clip-rule="nonzero">
<g clip-path="url(#clip38)" clip-rule="nonzero">
<path style=" stroke:none;fill-rule:nonzero;fill:rgb(100%,100%,100%);fill-opacity:1;" d="M 1021.828125 565.113281 C 1017.777344 589.617188 1026.621094 611.460938 1041.585938 613.933594 C 1056.550781 616.40625 1071.957031 598.554688 1075.992188 574.054688 C 1080.042969 549.566406 1071.191406 527.707031 1056.238281 525.234375 C 1041.273438 522.761719 1025.867188 540.625 1021.828125 565.113281 "/>
</g>
</g>
<g clip-path="url(#clip39)" clip-rule="nonzero">
<g clip-path="url(#clip40)" clip-rule="nonzero">
<path style=" stroke:none;fill-rule:nonzero;fill:rgb(13.729858%,12.159729%,12.548828%);fill-opacity:1;" d="M 1021.828125 565.113281 L 1018.234375 564.515625 C 1017.539062 568.722656 1017.210938 572.859375 1017.210938 576.867188 C 1017.210938 587.074219 1019.34375 596.382812 1023.335938 603.644531 C 1025.339844 607.269531 1027.8125 610.410156 1030.769531 612.8125 C 1033.726562 615.226562 1037.195312 616.90625 1040.988281 617.515625 C 1042.125 617.714844 1043.246094 617.800781 1044.371094 617.800781 C 1048.632812 617.800781 1052.769531 616.492188 1056.550781 614.261719 C 1062.234375 610.894531 1067.195312 605.464844 1071.160156 598.671875 C 1075.125 591.875 1078.082031 583.675781 1079.589844 574.652344 C 1080.273438 570.429688 1080.613281 566.292969 1080.613281 562.300781 C 1080.597656 552.09375 1078.464844 542.785156 1074.472656 535.507812 C 1072.484375 531.886719 1069.996094 528.757812 1067.039062 526.34375 C 1064.082031 523.941406 1060.617188 522.261719 1056.820312 521.636719 C 1055.699219 521.453125 1054.574219 521.367188 1053.4375 521.367188 C 1049.1875 521.367188 1045.054688 522.660156 1041.257812 524.90625 C 1035.585938 528.273438 1030.628906 533.691406 1026.648438 540.484375 C 1022.683594 547.292969 1019.726562 555.492188 1018.234375 564.515625 L 1021.828125 565.113281 L 1025.410156 565.710938 C 1027.214844 554.765625 1031.421875 545.273438 1036.640625 538.691406 C 1039.253906 535.410156 1042.097656 532.867188 1044.96875 531.175781 C 1047.839844 529.484375 1050.679688 528.644531 1053.4375 528.644531 C 1054.175781 528.644531 1054.902344 528.703125 1055.628906 528.828125 C 1058.101562 529.226562 1060.34375 530.277344 1062.449219 532 C 1065.605469 534.542969 1068.363281 538.621094 1070.292969 543.851562 C 1072.226562 549.082031 1073.335938 555.40625 1073.335938 562.300781 C 1073.335938 565.894531 1073.039062 569.632812 1072.398438 573.457031 C 1070.605469 584.402344 1066.398438 593.894531 1061.171875 600.460938 C 1058.570312 603.742188 1055.710938 606.300781 1052.839844 607.992188 C 1049.984375 609.683594 1047.128906 610.523438 1044.371094 610.523438 C 1043.632812 610.523438 1042.90625 610.464844 1042.183594 610.339844 C 1039.722656 609.925781 1037.476562 608.875 1035.359375 607.167969 C 1032.21875 604.625 1029.449219 600.53125 1027.515625 595.300781 C 1025.582031 590.085938 1024.472656 583.746094 1024.488281 576.867188 C 1024.488281 573.273438 1024.785156 569.519531 1025.410156 565.710938 L 1021.828125 565.113281 "/>
</g>
</g>
<g clip-path="url(#clip41)" clip-rule="nonzero">
<g clip-path="url(#clip42)" clip-rule="nonzero">
<path style=" stroke:none;fill-rule:nonzero;fill:rgb(13.729858%,12.159729%,12.548828%);fill-opacity:1;" d="M 1066.753906 565.15625 C 1067.054688 562.429688 1066.910156 559.65625 1066.328125 557.011719 C 1066.058594 555.675781 1065.632812 554.382812 1065.078125 553.175781 C 1064.539062 551.953125 1063.855469 550.789062 1063.019531 549.777344 C 1062.648438 549.222656 1062.207031 548.726562 1061.722656 548.285156 C 1061.253906 547.832031 1060.816406 547.335938 1060.246094 546.980469 C 1059.238281 546.140625 1058.058594 545.542969 1056.890625 544.933594 C 1055.667969 544.476562 1054.417969 543.921875 1053.152344 543.679688 C 1051.859375 543.398438 1050.722656 543.367188 1049.5 543.667969 C 1047.15625 544.222656 1045.238281 546 1043.886719 548.1875 C 1042.496094 550.375 1041.570312 552.90625 1040.832031 555.464844 C 1040.105469 558.050781 1039.59375 560.707031 1039.226562 563.394531 C 1039.039062 564.730469 1038.898438 566.082031 1038.769531 567.429688 L 1038.457031 571.539062 L 1037.664062 570.246094 C 1039.808594 571.125 1041.839844 572.105469 1043.84375 573.300781 C 1045.777344 574.550781 1047.824219 575.773438 1049.203125 578.191406 C 1049.542969 578.773438 1049.730469 579.566406 1049.742188 580.351562 C 1049.671875 581.144531 1049.417969 581.957031 1048.960938 582.511719 C 1048.09375 583.691406 1047 584.328125 1045.949219 584.914062 C 1043.789062 585.964844 1041.585938 586.589844 1039.355469 587.085938 L 1040.148438 586.050781 C 1040.234375 588.691406 1040.617188 591.449219 1041.414062 593.992188 C 1042.195312 596.46875 1043.617188 599.054688 1046.0625 599.496094 C 1047.242188 599.734375 1048.5625 599.453125 1049.773438 598.910156 C 1050.980469 598.371094 1052.160156 597.648438 1053.238281 596.792969 C 1055.414062 595.117188 1057.375 593.140625 1059.28125 591.125 C 1057.601562 593.339844 1055.796875 595.484375 1053.695312 597.347656 C 1052.640625 598.300781 1051.492188 599.152344 1050.210938 599.835938 C 1049.574219 600.175781 1048.875 600.433594 1048.152344 600.644531 C 1047.414062 600.800781 1046.644531 600.902344 1045.847656 600.789062 C 1044.269531 600.574219 1042.863281 599.59375 1041.925781 598.429688 C 1040.988281 597.234375 1040.347656 595.898438 1039.835938 594.546875 C 1038.84375 591.804688 1038.332031 589.019531 1038.089844 586.121094 C 1038.046875 585.652344 1038.359375 585.226562 1038.800781 585.109375 L 1038.871094 585.082031 C 1040.972656 584.5 1043.078125 583.875 1044.910156 582.9375 C 1045.792969 582.4375 1046.644531 581.871094 1047.085938 581.21875 C 1047.539062 580.578125 1047.539062 580.007812 1047.140625 579.253906 C 1046.289062 577.75 1044.398438 576.457031 1042.59375 575.390625 C 1040.746094 574.308594 1038.742188 573.371094 1036.753906 572.605469 C 1036.242188 572.40625 1035.929688 571.894531 1035.941406 571.367188 L 1035.957031 571.3125 C 1036.015625 570.015625 1036.085938 568.554688 1036.242188 567.1875 C 1036.382812 565.796875 1036.554688 564.417969 1036.765625 563.023438 C 1037.195312 560.265625 1037.761719 557.511719 1038.558594 554.808594 C 1039.382812 552.109375 1040.40625 549.421875 1042.011719 546.980469 C 1043.53125 544.546875 1045.960938 542.230469 1049.089844 541.675781 C 1050.554688 541.351562 1052.246094 541.519531 1053.59375 541.875 C 1055.03125 542.230469 1056.296875 542.871094 1057.617188 543.441406 C 1058.867188 544.152344 1060.105469 544.875 1061.183594 545.839844 C 1061.765625 546.253906 1062.234375 546.808594 1062.734375 547.335938 C 1063.246094 547.847656 1063.6875 548.398438 1064.070312 549.011719 C 1064.90625 550.175781 1065.535156 551.46875 1066.003906 552.792969 C 1066.5 554.113281 1066.839844 555.492188 1067.027344 556.886719 C 1067.4375 559.640625 1067.351562 562.46875 1066.753906 565.15625 "/>
</g>
</g>
<g clip-path="url(#clip43)" clip-rule="nonzero">
<g clip-path="url(#clip44)" clip-rule="nonzero">
<path style=" stroke:none;fill-rule:nonzero;fill:rgb(13.729858%,12.159729%,12.548828%);fill-opacity:1;" d="M 1059.152344 573.597656 C 1059.152344 573.597656 1059.421875 571.394531 1059.28125 568.085938 C 1059.195312 566.4375 1059.007812 564.515625 1058.554688 562.527344 C 1058.15625 560.523438 1057.417969 558.476562 1056.4375 556.601562 C 1055.882812 555.707031 1055.328125 554.796875 1054.644531 554.042969 C 1053.921875 553.332031 1053.28125 552.550781 1052.445312 552.082031 C 1052.046875 551.8125 1051.660156 551.554688 1051.277344 551.285156 C 1050.851562 551.113281 1050.441406 550.957031 1050.042969 550.789062 C 1049.628906 550.617188 1049.246094 550.460938 1048.863281 550.304688 C 1048.464844 550.234375 1048.066406 550.164062 1047.683594 550.089844 C 1046.929688 549.976562 1046.273438 549.75 1045.636719 549.765625 C 1044.996094 549.765625 1044.457031 549.75 1044 549.75 C 1043.089844 549.75 1042.578125 549.75 1042.578125 549.75 L 1042.351562 549.75 C 1041.515625 549.734375 1040.832031 549.054688 1040.832031 548.199219 C 1040.847656 547.363281 1041.527344 546.695312 1042.367188 546.695312 L 1042.496094 546.695312 C 1042.496094 546.695312 1043.089844 546.75 1044.113281 546.851562 C 1044.625 546.894531 1045.25 546.949219 1045.976562 547.019531 C 1046.6875 547.0625 1047.46875 547.390625 1048.335938 547.605469 C 1048.761719 547.71875 1049.21875 547.847656 1049.671875 547.972656 C 1050.113281 548.199219 1050.554688 548.429688 1051.023438 548.671875 C 1051.476562 548.898438 1051.945312 549.140625 1052.429688 549.394531 C 1052.839844 549.734375 1053.269531 550.078125 1053.707031 550.445312 C 1054.644531 551.085938 1055.3125 552.039062 1056.054688 552.917969 C 1056.75 553.84375 1057.289062 554.894531 1057.800781 555.933594 C 1058.695312 558.050781 1059.265625 560.265625 1059.507812 562.355469 C 1059.792969 564.460938 1059.820312 566.421875 1059.75 568.085938 C 1059.621094 571.425781 1059.152344 573.597656 1059.152344 573.597656 "/>
</g>
</g>
<g clip-path="url(#clip45)" clip-rule="nonzero">
<g clip-path="url(#clip46)" clip-rule="nonzero">
<path style=" stroke:none;fill-rule:nonzero;fill:rgb(100%,100%,100%);fill-opacity:1;" d="M 1032.277344 547.261719 C 1032.277344 576.214844 1028.566406 609.597656 1018.5625 641.917969 C 996.160156 714.375 914.824219 781.515625 870.394531 781.515625 C 825.3125 781.515625 743.21875 712.414062 721.246094 638.761719 C 711.910156 607.4375 708.5 575.277344 708.5 547.261719 C 708.5 453.417969 725.027344 330.59375 870.394531 330.59375 C 1015.746094 330.59375 1032.277344 453.417969 1032.277344 547.261719 "/>
</g>
</g>
<g clip-path="url(#clip47)" clip-rule="nonzero">
<g clip-path="url(#clip48)" clip-rule="nonzero">
<path style=" stroke:none;fill-rule:nonzero;fill:rgb(13.729858%,12.159729%,12.548828%);fill-opacity:1;" d="M 1032.277344 547.261719 L 1028.636719 547.261719 C 1028.636719 575.902344 1024.957031 608.960938 1015.09375 640.839844 C 1004.191406 676.199219 978.609375 710.707031 950.3125 736.175781 C 936.171875 748.925781 921.347656 759.414062 907.445312 766.664062 C 893.574219 773.925781 880.585938 777.890625 870.394531 777.875 C 860.046875 777.890625 846.902344 773.8125 832.859375 766.351562 C 811.78125 755.179688 788.6875 736.53125 768.945312 713.90625 C 749.175781 691.277344 732.757812 664.671875 724.730469 637.726562 C 715.519531 606.8125 712.136719 574.976562 712.136719 547.261719 C 712.121094 500.546875 716.328125 446.878906 738.160156 405.4375 C 749.0625 384.683594 764.285156 366.992188 785.617188 354.382812 C 806.964844 341.792969 834.550781 334.246094 870.394531 334.230469 C 906.222656 334.246094 933.8125 341.792969 955.160156 354.382812 C 971.175781 363.847656 983.710938 376.15625 993.601562 390.484375 C 1008.425781 411.945312 1017.226562 437.96875 1022.269531 465.242188 C 1027.328125 492.515625 1028.636719 520.984375 1028.636719 547.261719 L 1035.914062 547.261719 C 1035.886719 500.132812 1031.835938 445.457031 1009.066406 402.054688 C 997.667969 380.351562 981.496094 361.476562 958.855469 348.117188 C 936.226562 334.757812 907.234375 326.953125 870.394531 326.953125 C 833.542969 326.953125 804.5625 334.757812 781.921875 348.117188 C 764.953125 358.136719 751.589844 371.253906 741.1875 386.347656 C 725.566406 408.988281 716.527344 435.992188 711.339844 463.921875 C 706.167969 491.847656 704.859375 520.742188 704.859375 547.261719 C 704.875 575.574219 708.300781 608.050781 717.765625 639.800781 C 729.035156 677.507812 755.398438 713.578125 784.691406 740.441406 C 799.34375 753.855469 814.738281 764.972656 829.449219 772.773438 C 844.171875 780.5625 858.1875 785.125 870.394531 785.140625 C 882.402344 785.125 896.261719 780.691406 910.828125 773.117188 C 932.644531 761.703125 956.066406 743.054688 976.277344 720.34375 C 996.460938 697.617188 1013.429688 670.828125 1022.042969 642.984375 C 1032.160156 610.238281 1035.914062 576.527344 1035.914062 547.261719 L 1032.277344 547.261719 "/>
</g>
</g>
<g clip-path="url(#clip49)" clip-rule="nonzero">
<g clip-path="url(#clip50)" clip-rule="nonzero">
<path style=" stroke:none;fill-rule:nonzero;fill:rgb(100%,100%,100%);fill-opacity:1;" d="M 817.964844 658.773438 C 817.964844 658.773438 855.484375 647.191406 921.433594 657.652344 C 921.433594 657.652344 873.164062 753.617188 817.964844 658.773438 "/>
</g>
</g>
<g clip-path="url(#clip51)" clip-rule="nonzero">
<g clip-path="url(#clip52)" clip-rule="nonzero">
<path style=" stroke:none;fill-rule:nonzero;fill:rgb(13.729858%,12.159729%,12.548828%);fill-opacity:1;" d="M 817.964844 658.773438 L 818.503906 660.507812 L 818.675781 660.453125 C 820.609375 659.898438 838.003906 655.09375 868.417969 655.09375 C 883.058594 655.09375 900.722656 656.203125 921.148438 659.441406 L 921.433594 657.652344 L 919.8125 656.828125 L 919.570312 657.28125 C 918.375 659.570312 912.605469 670.089844 903.636719 679.9375 C 899.160156 684.855469 893.886719 689.601562 888.046875 693.097656 C 882.191406 696.59375 875.796875 698.8125 868.957031 698.8125 C 861.765625 698.8125 854.007812 696.367188 845.691406 690.015625 C 837.394531 683.675781 828.582031 673.398438 819.527344 657.851562 L 817.964844 658.773438 L 818.503906 660.507812 L 817.964844 658.773438 L 816.386719 659.683594 C 825.597656 675.515625 834.664062 686.164062 843.488281 692.914062 C 852.300781 699.652344 860.914062 702.464844 868.957031 702.449219 C 877.101562 702.449219 884.578125 699.621094 891.144531 695.457031 C 910.828125 682.949219 922.964844 658.589844 923.050781 658.460938 C 923.320312 657.949219 923.308594 657.339844 923.050781 656.828125 C 922.78125 656.300781 922.285156 655.945312 921.714844 655.863281 C 901.109375 652.578125 883.242188 651.457031 868.417969 651.457031 C 835.558594 651.457031 817.582031 656.984375 817.425781 657.042969 C 816.898438 657.199219 816.472656 657.59375 816.273438 658.121094 C 816.074219 658.632812 816.117188 659.214844 816.386719 659.683594 L 817.964844 658.773438 "/>
</g>
</g>
<g clip-path="url(#clip53)" clip-rule="nonzero">
<g clip-path="url(#clip54)" clip-rule="nonzero">
<path style=" stroke:none;fill-rule:nonzero;fill:rgb(13.729858%,12.159729%,12.548828%);fill-opacity:1;" d="M 741.257812 488.238281 C 741.257812 488.238281 760.671875 470.957031 779.363281 475.21875 C 798.050781 479.46875 827.132812 479.441406 835.644531 469.960938 C 835.644531 469.960938 772.3125 444.546875 741.257812 488.238281 "/>
</g>
</g>
<g clip-path="url(#clip55)" clip-rule="nonzero">
<g clip-path="url(#clip56)" clip-rule="nonzero">
<path style=" stroke:none;fill-rule:nonzero;fill:rgb(13.729858%,12.159729%,12.548828%);fill-opacity:1;" d="M 993.929688 488.238281 C 993.929688 488.238281 974.53125 470.957031 955.839844 475.21875 C 937.136719 479.46875 908.070312 479.441406 899.542969 469.960938 C 899.542969 469.960938 962.875 444.546875 993.929688 488.238281 "/>
</g>
</g>
<g clip-path="url(#clip57)" clip-rule="nonzero">
<g clip-path="url(#clip58)" clip-rule="nonzero">
<path style=" stroke:none;fill-rule:nonzero;fill:rgb(13.729858%,12.159729%,12.548828%);fill-opacity:1;" d="M 847.925781 621.226562 C 848.007812 621.195312 847.613281 620.300781 847.753906 618.496094 C 847.824219 617.585938 847.980469 616.492188 848.4375 615.328125 C 848.832031 614.117188 849.5 612.824219 850.382812 611.546875 C 851.277344 610.253906 852.386719 608.945312 853.78125 607.792969 C 855.117188 606.585938 856.707031 605.507812 858.457031 604.609375 C 860.21875 603.757812 862.109375 602.917969 864.140625 602.492188 C 866.160156 601.96875 868.277344 601.796875 870.394531 601.695312 C 871.617188 601.78125 872.285156 601.753906 873.464844 601.925781 C 874.558594 602.066406 875.640625 602.222656 876.632812 602.492188 C 878.667969 602.90625 880.554688 603.757812 882.320312 604.609375 C 884.082031 605.507812 885.660156 606.585938 887.007812 607.78125 C 888.386719 608.929688 889.496094 610.238281 890.390625 611.53125 C 891.285156 612.824219 891.941406 614.105469 892.339844 615.3125 C 892.792969 616.492188 892.949219 617.601562 893.019531 618.480469 C 893.164062 620.257812 892.765625 621.238281 892.851562 621.226562 C 892.792969 621.238281 892.695312 620.230469 891.984375 618.738281 C 891.640625 618 891.160156 617.144531 890.503906 616.265625 C 889.867188 615.371094 889 614.472656 888.046875 613.566406 C 887.050781 612.667969 885.886719 611.816406 884.605469 611.019531 C 883.328125 610.210938 881.851562 609.570312 880.359375 608.929688 C 878.824219 608.347656 877.1875 607.90625 875.523438 607.582031 C 874.671875 607.382812 873.863281 607.3125 873.050781 607.210938 C 872.339844 607.097656 871.078125 607.140625 870.394531 607.097656 C 866.925781 607.070312 863.488281 607.78125 860.417969 608.929688 C 858.925781 609.570312 857.445312 610.195312 856.167969 611.007812 C 854.886719 611.800781 853.722656 612.65625 852.726562 613.550781 C 851.777344 614.472656 850.894531 615.355469 850.269531 616.265625 C 849.617188 617.144531 849.132812 618.011719 848.792969 618.722656 C 848.082031 620.1875 847.980469 621.269531 847.925781 621.226562 "/>
</g>
</g>
<g clip-path="url(#clip59)" clip-rule="nonzero">
<g clip-path="url(#clip60)" clip-rule="nonzero">
<path style=" stroke:none;fill-rule:nonzero;fill:rgb(13.729858%,12.159729%,12.548828%);fill-opacity:1;" d="M 825.242188 555.71875 C 825.242188 570.457031 818.632812 582.398438 810.488281 582.398438 C 802.359375 582.398438 795.765625 570.457031 795.765625 555.71875 C 795.765625 540.980469 802.359375 529.042969 810.488281 529.042969 C 818.632812 529.042969 825.242188 540.980469 825.242188 555.71875 "/>
</g>
</g>
<g clip-path="url(#clip61)" clip-rule="nonzero">
<g clip-path="url(#clip62)" clip-rule="nonzero">
<path style=" stroke:none;fill-rule:nonzero;fill:rgb(13.729858%,12.159729%,12.548828%);fill-opacity:1;" d="M 945.023438 555.71875 C 945.023438 570.457031 938.429688 582.398438 930.285156 582.398438 C 922.140625 582.398438 915.546875 570.457031 915.546875 555.71875 C 915.546875 540.980469 922.140625 529.042969 930.285156 529.042969 C 938.429688 529.042969 945.023438 540.980469 945.023438 555.71875 "/>
</g>
</g>
<g clip-path="url(#clip63)" clip-rule="nonzero">
<g clip-path="url(#clip64)" clip-rule="nonzero">
<path style=" stroke:none;fill-rule:nonzero;fill:rgb(100%,100%,100%);fill-opacity:1;" d="M 822.894531 658.773438 C 822.894531 658.773438 860.191406 680.023438 918.546875 658.773438 C 918.546875 658.773438 872.46875 726.3125 822.894531 658.773438 "/>
</g>
</g>
<g clip-path="url(#clip65)" clip-rule="nonzero">
<g clip-path="url(#clip66)" clip-rule="nonzero">
<path style=" stroke:none;fill-rule:nonzero;fill:rgb(13.729858%,12.159729%,12.548828%);fill-opacity:1;" d="M 822.894531 658.773438 L 821.988281 660.351562 C 822.183594 660.464844 839.054688 670.03125 867.808594 670.03125 C 882.191406 670.046875 899.515625 667.644531 919.171875 660.480469 L 918.546875 658.773438 L 917.039062 657.75 L 916.828125 658.050781 C 915.71875 659.628906 910.289062 666.933594 901.945312 673.785156 C 893.589844 680.648438 882.390625 686.972656 869.726562 686.972656 C 856.238281 686.945312 840.703125 679.910156 824.359375 657.695312 L 822.894531 658.773438 L 821.988281 660.351562 L 822.894531 658.773438 L 821.433594 659.855469 C 838.132812 682.652344 854.859375 690.625 869.726562 690.597656 C 884.5625 690.582031 897.113281 682.808594 905.953125 675.148438 C 914.792969 667.488281 919.996094 659.882812 920.039062 659.796875 C 920.492188 659.144531 920.464844 658.277344 919.980469 657.652344 C 919.5 657.042969 918.660156 656.785156 917.921875 657.070312 C 898.664062 664.078125 881.777344 666.394531 867.808594 666.40625 C 853.851562 666.394531 842.792969 664.078125 835.261719 661.757812 C 831.496094 660.59375 828.59375 659.441406 826.664062 658.589844 C 825.695312 658.164062 824.972656 657.808594 824.488281 657.550781 L 823.949219 657.28125 L 823.792969 657.199219 C 823.050781 656.769531 822.101562 656.925781 821.53125 657.566406 C 820.964844 658.207031 820.921875 659.160156 821.433594 659.855469 L 822.894531 658.773438 "/>
</g>
</g>
<g clip-path="url(#clip67)" clip-rule="nonzero">
<g clip-path="url(#clip68)" clip-rule="nonzero">
<path style=" stroke:none;fill-rule:nonzero;fill:rgb(13.729858%,12.159729%,12.548828%);fill-opacity:1;" d="M 835.941406 673.65625 C 833.34375 669.660156 831.210938 665.371094 829.632812 661.773438 C 825.226562 660.109375 822.894531 658.773438 822.894531 658.773438 C 827.273438 664.757812 831.636719 669.660156 835.941406 673.65625 "/>
</g>
</g>
<g clip-path="url(#clip69)" clip-rule="nonzero">
<g clip-path="url(#clip70)" clip-rule="nonzero">
<path style=" stroke:none;fill-rule:nonzero;fill:rgb(13.729858%,12.159729%,12.548828%);fill-opacity:1;" d="M 904.972656 673.597656 C 913.515625 666.152344 918.546875 658.773438 918.546875 658.773438 C 916.527344 659.5 914.539062 660.183594 912.578125 660.820312 C 910.703125 664.617188 908.113281 669.320312 904.972656 673.597656 "/>
</g>
</g>
<g clip-path="url(#clip71)" clip-rule="nonzero">
<g clip-path="url(#clip72)" clip-rule="nonzero">
<path style=" stroke:none;fill-rule:nonzero;fill:rgb(13.729858%,12.159729%,12.548828%);fill-opacity:1;" d="M 708.5 556.0625 C 708.5 556.0625 614.597656 383.09375 716.769531 293.953125 C 716.769531 293.953125 741.515625 268.484375 801.136719 272.121094 C 801.136719 272.121094 1133.652344 204.8125 1032.277344 547.261719 C 1032.277344 547.261719 1037.207031 397.648438 911.765625 395.828125 C 911.765625 395.828125 845.296875 419.476562 788.457031 395.828125 C 731.609375 372.179688 707.21875 439.757812 708.5 556.0625 "/>
</g>
</g>
<g clip-path="url(#clip73)" clip-rule="nonzero">
<g clip-path="url(#clip74)" clip-rule="nonzero">
<path style=" stroke:none;fill-rule:nonzero;fill:rgb(13.729858%,12.159729%,12.548828%);fill-opacity:1;" d="M 1014.226562 831.683594 C 1014.226562 831.683594 988.019531 792.332031 953.722656 737.980469 C 940.875 749.679688 927.445312 759.570312 914.523438 766.945312 C 918.25 800.234375 926.589844 836.332031 945.023438 850.019531 C 982.660156 877.917969 1005.15625 1001.441406 947.527344 1065.199219 C 947.527344 1065.199219 1101.632812 1031.203125 1014.226562 831.683594 "/>
</g>
</g>
<g clip-path="url(#clip75)" clip-rule="nonzero">
<g clip-path="url(#clip76)" clip-rule="nonzero">
<path style=" stroke:none;fill-rule:nonzero;fill:rgb(100%,100%,100%);fill-opacity:1;" d="M 984.082031 596.695312 C 984.082031 596.695312 968.875 606.601562 936.328125 602.976562 C 901.535156 599.125 894.074219 545.8125 894.074219 545.8125 L 894.074219 532.679688 C 894.074219 532.679688 897.925781 522.632812 911.441406 518.78125 C 924.972656 514.902344 974.417969 514.132812 988.332031 518.78125 C 988.332031 518.78125 1004.164062 521.097656 1004.164062 530.746094 C 1004.164062 540.398438 1006.097656 584.214844 984.082031 596.695312 Z M 849.246094 549.195312 C 849.246094 549.195312 841.785156 602.507812 806.992188 606.359375 C 774.445312 609.984375 759.253906 600.078125 759.253906 600.078125 C 737.222656 587.613281 739.15625 543.796875 739.15625 534.128906 C 739.15625 524.464844 755.003906 522.148438 755.003906 522.148438 C 768.902344 517.515625 818.347656 518.296875 831.878906 522.148438 C 845.410156 526.03125 849.246094 536.0625 849.246094 536.0625 Z M 1030.199219 525.601562 C 1027.003906 523.398438 1017.75 521.4375 1012.390625 520.445312 C 1007.972656 513.394531 995.28125 511.519531 995.28125 511.519531 C 978.90625 506.0625 920.691406 506.96875 904.761719 511.519531 C 892.308594 515.070312 886.851562 523.042969 885.046875 526.371094 C 873.480469 521.679688 862.179688 524.183594 856.039062 526.34375 C 853.113281 522.546875 847.738281 517.515625 838.558594 514.902344 C 822.640625 510.351562 764.425781 509.441406 748.050781 514.902344 C 748.050781 514.902344 740.164062 516.082031 734.648438 520.015625 C 730.34375 520.757812 718.207031 523.015625 714.441406 525.601562 C 709.820312 528.785156 714.355469 542.886719 714.355469 542.886719 L 729.589844 547.589844 C 730.515625 567.601562 734.777344 596.28125 753.054688 606.644531 C 753.054688 606.644531 770.949219 618.3125 809.265625 614.046875 C 850.226562 609.484375 859.023438 546.738281 859.023438 546.738281 L 859.023438 544.917969 C 870.691406 537.371094 879.875 542.316406 884.90625 546.78125 C 887.421875 559.898438 898.863281 606.742188 934.050781 610.664062 C 972.371094 614.929688 990.277344 603.261719 990.277344 603.261719 C 1007.402344 593.554688 1012.222656 567.742188 1013.515625 548.074219 L 1030.285156 542.886719 C 1030.285156 542.886719 1034.820312 528.785156 1030.199219 525.601562 "/>
</g>
</g>
<g clip-path="url(#clip77)" clip-rule="nonzero">
<g clip-path="url(#clip78)" clip-rule="nonzero">
<path style=" stroke:none;fill-rule:nonzero;fill:rgb(13.729858%,12.159729%,12.548828%);fill-opacity:1;" d="M 984.082031 596.695312 L 983.085938 595.171875 L 983.070312 595.171875 C 982.660156 595.429688 972.113281 601.953125 950.167969 601.953125 C 946.035156 601.953125 941.484375 601.726562 936.527344 601.171875 C 928.296875 600.246094 921.703125 596.453125 916.328125 591.125 C 908.269531 583.148438 903.082031 571.738281 900 562.3125 C 898.449219 557.609375 897.414062 553.402344 896.773438 550.375 C 896.445312 548.867188 896.21875 547.648438 896.078125 546.824219 C 895.933594 545.984375 895.878906 545.558594 895.878906 545.558594 L 894.074219 545.8125 L 895.890625 545.8125 L 895.890625 532.679688 L 894.074219 532.679688 L 895.765625 533.335938 C 895.835938 533.179688 896.800781 530.832031 899.273438 528.117188 C 901.777344 525.402344 905.742188 522.292969 911.9375 520.515625 C 915.222656 519.578125 921.175781 518.765625 928.269531 518.226562 C 935.359375 517.6875 943.675781 517.402344 951.859375 517.402344 C 959.363281 517.402344 966.769531 517.644531 973.109375 518.15625 C 979.433594 518.667969 984.71875 519.476562 987.746094 520.5 L 988.058594 520.570312 L 988.203125 520.601562 C 988.96875 520.714844 992.765625 521.4375 996.191406 523.117188 C 997.894531 523.953125 999.488281 525.035156 1000.597656 526.300781 C 1001.691406 527.578125 1002.328125 528.957031 1002.34375 530.746094 C 1002.34375 532.226562 1002.386719 534.402344 1002.386719 537.128906 C 1002.386719 544.890625 1002.03125 557.011719 999.386719 568.382812 C 996.757812 579.78125 991.828125 590.242188 983.171875 595.117188 L 983.085938 595.171875 L 984.082031 596.695312 L 984.976562 598.273438 C 995.054688 592.515625 1000.183594 581.019531 1002.941406 569.207031 C 1005.683594 557.367188 1006.023438 545.015625 1006.023438 537.128906 C 1006.023438 534.371094 1005.984375 532.15625 1005.984375 530.746094 C 1005.996094 527.820312 1004.730469 525.363281 1003.011719 523.554688 C 1000.410156 520.828125 996.84375 519.265625 993.902344 518.285156 C 990.972656 517.316406 988.65625 516.988281 988.585938 516.976562 L 988.332031 518.78125 L 988.898438 517.046875 C 985.289062 515.851562 979.886719 515.058594 973.40625 514.53125 C 966.941406 514.003906 959.4375 513.765625 951.859375 513.765625 C 943.589844 513.765625 935.203125 514.046875 927.984375 514.601562 C 920.75 515.15625 914.738281 515.953125 910.941406 517.019531 C 903.824219 519.050781 899.160156 522.761719 896.316406 525.972656 C 893.476562 529.183594 892.425781 531.886719 892.367188 532.027344 L 892.253906 532.679688 L 892.253906 545.8125 L 892.269531 546.070312 C 892.28125 546.15625 894.15625 559.613281 900.496094 573.699219 C 903.667969 580.734375 907.957031 587.953125 913.769531 593.710938 C 919.570312 599.464844 926.960938 603.773438 936.128906 604.796875 C 941.214844 605.351562 945.890625 605.589844 950.167969 605.589844 C 973.578125 605.589844 984.835938 598.386719 985.0625 598.214844 L 984.082031 596.695312 L 984.976562 598.273438 Z M 849.246094 549.195312 L 847.441406 548.941406 C 847.441406 548.941406 847.425781 549.125 847.371094 549.507812 C 846.914062 552.335938 844.527344 565.441406 838.316406 578.117188 C 835.21875 584.457031 831.152344 590.683594 825.964844 595.484375 C 820.777344 600.289062 814.511719 603.703125 806.792969 604.554688 C 801.832031 605.109375 797.300781 605.335938 793.148438 605.335938 C 781.820312 605.335938 773.535156 603.601562 768.105469 601.882812 C 765.390625 601.027344 763.402344 600.175781 762.09375 599.535156 C 761.441406 599.222656 760.957031 598.96875 760.660156 598.796875 L 760.316406 598.597656 L 760.246094 598.554688 L 760.234375 598.554688 L 760.148438 598.5 C 751.492188 593.640625 746.558594 583.179688 743.929688 571.78125 C 741.289062 560.394531 740.933594 548.273438 740.933594 540.511719 C 740.933594 537.785156 740.972656 535.59375 740.972656 534.128906 C 740.988281 532.226562 741.714844 530.777344 742.949219 529.425781 C 744.8125 527.4375 747.925781 525.988281 750.554688 525.121094 C 751.875 524.695312 753.070312 524.394531 753.921875 524.210938 C 754.347656 524.125 754.691406 524.054688 754.917969 524.011719 L 755.257812 523.953125 L 755.570312 523.882812 C 758.597656 522.859375 763.886719 522.050781 770.210938 521.539062 C 776.535156 521.027344 783.9375 520.785156 791.429688 520.785156 C 799.628906 520.785156 807.945312 521.070312 815.050781 521.609375 C 822.144531 522.148438 828.097656 522.960938 831.378906 523.910156 C 837.777344 525.746094 841.796875 528.984375 844.273438 531.769531 C 845.507812 533.148438 846.332031 534.429688 846.859375 535.339844 C 847.113281 535.792969 847.300781 536.148438 847.414062 536.390625 L 847.527344 536.660156 L 847.554688 536.71875 L 849.246094 536.0625 L 847.425781 536.0625 L 847.425781 549.195312 L 849.246094 549.195312 L 847.441406 548.941406 L 849.246094 549.195312 L 851.066406 549.195312 L 851.066406 536.0625 L 850.953125 535.410156 C 850.894531 535.269531 849.84375 532.566406 847 529.355469 C 844.15625 526.144531 839.496094 522.433594 832.375 520.402344 C 828.582031 519.320312 822.554688 518.539062 815.320312 517.984375 C 808.101562 517.429688 799.714844 517.148438 791.429688 517.148438 C 783.855469 517.148438 776.378906 517.386719 769.910156 517.914062 C 763.429688 518.453125 758.03125 519.234375 754.417969 520.429688 L 755.003906 522.148438 L 754.730469 520.359375 C 754.632812 520.371094 750.566406 520.957031 746.332031 522.859375 C 744.214844 523.828125 742.039062 525.105469 740.304688 526.9375 C 738.585938 528.742188 737.320312 531.203125 737.335938 534.128906 C 737.335938 535.539062 737.292969 537.753906 737.292969 540.511719 C 737.292969 548.398438 737.632812 560.75 740.378906 572.589844 C 743.136719 584.414062 748.265625 595.898438 758.355469 601.65625 L 759.253906 600.078125 L 758.257812 601.597656 C 758.5 601.769531 769.742188 608.972656 793.148438 608.972656 C 797.425781 608.972656 802.101562 608.734375 807.191406 608.179688 C 816.359375 607.167969 823.75 602.847656 829.546875 597.09375 C 838.273438 588.4375 843.574219 576.554688 846.789062 566.832031 C 849.972656 557.113281 851.035156 549.523438 851.050781 549.453125 L 851.066406 549.195312 Z M 1030.199219 525.601562 L 1031.238281 524.097656 C 1030.199219 523.398438 1028.921875 522.847656 1027.445312 522.292969 C 1023.023438 520.699219 1016.796875 519.421875 1012.734375 518.652344 L 1012.390625 520.445312 L 1013.941406 519.476562 C 1011.3125 515.355469 1006.691406 513.054688 1002.800781 511.632812 C 998.890625 510.210938 995.621094 509.726562 995.535156 509.714844 L 995.28125 511.519531 L 995.847656 509.785156 C 991.65625 508.40625 985.304688 507.46875 977.683594 506.84375 C 970.082031 506.230469 961.269531 505.933594 952.371094 505.933594 C 942.621094 505.933594 932.757812 506.273438 924.261719 506.925781 C 915.761719 507.582031 908.667969 508.503906 904.261719 509.769531 C 891.230469 513.480469 885.390625 521.90625 883.441406 525.503906 L 885.046875 526.371094 L 885.730469 524.679688 C 880.65625 522.632812 875.640625 521.878906 871.0625 521.894531 C 864.679688 521.894531 859.152344 523.316406 855.429688 524.621094 L 856.039062 526.34375 L 857.476562 525.234375 C 854.375 521.195312 848.648438 515.882812 839.054688 513.152344 C 834.636719 511.902344 827.558594 510.964844 819.058594 510.308594 C 810.558594 509.671875 800.695312 509.316406 790.945312 509.316406 C 782.035156 509.316406 773.222656 509.601562 765.632812 510.226562 C 758.015625 510.851562 751.664062 511.773438 747.46875 513.179688 L 748.050781 514.902344 L 747.78125 513.097656 C 747.65625 513.136719 739.625 514.261719 733.597656 518.539062 L 734.648438 520.015625 L 734.335938 518.226562 C 732.164062 518.597656 728.027344 519.347656 723.917969 520.34375 C 721.859375 520.84375 719.8125 521.410156 717.992188 522.019531 C 716.171875 522.632812 714.609375 523.285156 713.402344 524.097656 C 712.179688 524.933594 711.484375 526.199219 711.070312 527.480469 C 710.671875 528.773438 710.546875 530.164062 710.546875 531.574219 C 710.558594 537.113281 712.605469 543.339844 712.621094 543.441406 C 712.804688 543.992188 713.246094 544.433594 713.8125 544.621094 L 729.0625 549.324219 L 729.589844 547.589844 L 727.769531 547.675781 C 728.238281 557.765625 729.546875 570.074219 733.074219 581.289062 C 736.609375 592.472656 742.425781 602.691406 752.160156 608.222656 L 753.054688 606.644531 L 752.058594 608.164062 C 752.300781 608.335938 765.460938 616.804688 792.964844 616.804688 C 797.980469 616.804688 803.480469 616.519531 809.464844 615.851562 C 820.167969 614.671875 828.808594 609.640625 835.601562 602.90625 C 845.804688 592.773438 852.046875 578.828125 855.8125 567.402344 C 859.5625 555.976562 860.816406 547.0625 860.816406 546.992188 L 860.84375 546.738281 L 860.84375 544.917969 L 859.023438 544.917969 L 860.003906 546.453125 C 864.140625 543.78125 867.792969 542.828125 871.019531 542.828125 C 876.363281 542.828125 880.742188 545.515625 883.699219 548.144531 L 884.90625 546.78125 L 883.113281 547.121094 C 884.394531 553.785156 887.90625 568.921875 895.621094 583.050781 C 899.488281 590.101562 904.417969 596.921875 910.703125 602.265625 C 916.984375 607.609375 924.65625 611.445312 933.855469 612.46875 C 939.824219 613.136719 945.324219 613.421875 950.339844 613.421875 C 977.839844 613.421875 991.03125 604.9375 991.257812 604.78125 L 990.277344 603.261719 L 991.171875 604.839844 C 1000.296875 599.652344 1005.953125 590.339844 1009.550781 579.996094 C 1013.132812 569.632812 1014.667969 558.121094 1015.335938 548.1875 L 1013.515625 548.074219 L 1014.054688 549.808594 L 1030.824219 544.621094 C 1031.394531 544.433594 1031.835938 543.992188 1032.019531 543.441406 C 1032.035156 543.339844 1034.082031 537.113281 1034.09375 531.585938 C 1034.09375 530.164062 1033.953125 528.773438 1033.554688 527.480469 C 1033.15625 526.199219 1032.445312 524.933594 1031.238281 524.097656 L 1030.199219 525.601562 L 1029.175781 527.109375 C 1029.503906 527.324219 1029.832031 527.761719 1030.085938 528.558594 C 1030.328125 529.339844 1030.457031 530.40625 1030.457031 531.585938 C 1030.457031 533.902344 1029.988281 536.632812 1029.503906 538.734375 C 1029.261719 539.789062 1029.019531 540.695312 1028.835938 541.335938 L 1028.625 542.074219 L 1028.550781 542.316406 L 1030.285156 542.886719 L 1029.746094 541.136719 L 1012.976562 546.324219 C 1012.265625 546.550781 1011.753906 547.191406 1011.695312 547.945312 C 1011.054688 557.679688 1009.535156 568.921875 1006.109375 578.800781 C 1002.683594 588.707031 997.382812 597.148438 989.382812 601.667969 L 989.28125 601.726562 L 989.269531 601.738281 C 988.726562 602.066406 976.25 609.769531 950.339844 609.785156 C 945.449219 609.785156 940.105469 609.5 934.25 608.859375 C 925.851562 607.921875 918.902344 604.441406 913.0625 599.480469 C 904.304688 592.0625 898.136719 581.246094 893.957031 571.027344 C 889.792969 560.835938 887.621094 551.269531 886.683594 546.4375 C 886.609375 546.039062 886.398438 545.683594 886.097656 545.414062 C 882.773438 542.460938 877.628906 539.203125 871.019531 539.191406 C 867.070312 539.191406 862.664062 540.398438 858.03125 543.398438 C 857.519531 543.722656 857.207031 544.308594 857.207031 544.917969 L 857.207031 546.738281 L 859.023438 546.738281 L 857.21875 546.480469 C 857.21875 546.480469 857.191406 546.707031 857.121094 547.148438 C 856.578125 550.503906 853.78125 565.953125 846.433594 580.933594 C 842.765625 588.421875 837.976562 595.785156 831.820312 601.46875 C 825.679688 607.167969 818.234375 611.21875 809.066406 612.242188 C 803.210938 612.882812 797.839844 613.167969 792.964844 613.167969 C 779.589844 613.167969 769.796875 611.105469 763.386719 609.074219 C 760.175781 608.066406 757.816406 607.054688 756.265625 606.300781 C 755.484375 605.933594 754.917969 605.632812 754.546875 605.421875 L 754.148438 605.179688 L 754.050781 605.121094 L 754.035156 605.121094 L 753.949219 605.066406 C 745.394531 600.234375 739.9375 590.9375 736.554688 580.195312 C 733.15625 569.464844 731.863281 557.425781 731.410156 547.503906 C 731.382812 546.738281 730.871094 546.082031 730.128906 545.855469 L 714.894531 541.136719 L 714.355469 542.886719 L 716.089844 542.316406 L 716.003906 542.074219 C 715.648438 540.910156 714.167969 535.652344 714.183594 531.574219 C 714.167969 530.40625 714.296875 529.339844 714.554688 528.558594 C 714.796875 527.761719 715.121094 527.335938 715.464844 527.09375 C 716.132812 526.625 717.507812 526.015625 719.160156 525.460938 C 724.160156 523.769531 731.777344 522.347656 734.960938 521.808594 L 735.714844 521.496094 C 738.203125 519.703125 741.386719 518.46875 743.929688 517.730469 C 745.210938 517.34375 746.320312 517.089844 747.101562 516.933594 C 747.5 516.847656 747.796875 516.792969 748.011719 516.75 L 748.324219 516.691406 L 748.621094 516.621094 C 752.246094 515.414062 758.46875 514.460938 765.933594 513.847656 C 773.394531 513.238281 782.121094 512.953125 790.945312 512.953125 C 800.609375 512.953125 810.402344 513.308594 818.773438 513.949219 C 827.144531 514.574219 834.152344 515.527344 838.0625 516.648438 C 846.816406 519.152344 851.847656 523.898438 854.589844 527.449219 C 855.074219 528.074219 855.898438 528.316406 856.636719 528.0625 C 860.074219 526.839844 865.222656 525.519531 871.0625 525.519531 C 875.253906 525.53125 879.789062 526.199219 884.367188 528.0625 C 885.21875 528.402344 886.199219 528.046875 886.640625 527.238281 C 888.316406 524.183594 893.40625 516.664062 905.257812 513.265625 C 909.167969 512.144531 916.171875 511.191406 924.542969 510.550781 C 932.914062 509.914062 942.707031 509.570312 952.371094 509.570312 C 961.199219 509.570312 969.925781 509.871094 977.402344 510.464844 C 984.847656 511.078125 991.074219 512.03125 994.699219 513.238281 L 995.011719 513.324219 C 995.011719 513.324219 995.167969 513.335938 995.507812 513.394531 C 996.671875 513.609375 999.730469 514.261719 1002.898438 515.570312 C 1006.082031 516.863281 1009.28125 518.851562 1010.859375 521.410156 C 1011.128906 521.835938 1011.566406 522.136719 1012.066406 522.234375 C 1014.710938 522.71875 1018.332031 523.457031 1021.644531 524.324219 C 1023.292969 524.765625 1024.871094 525.234375 1026.207031 525.714844 C 1027.515625 526.199219 1028.59375 526.699219 1029.175781 527.109375 L 1030.199219 525.601562 "/>
</g>
</g>
<g clip-path="url(#clip79)" clip-rule="nonzero">
<path style=" stroke:none;fill-rule:nonzero;fill:rgb(13.729858%,12.159729%,12.548828%);fill-opacity:1;" d="M 1493.617188 661.617188 L 1484.519531 661.617188 C 1484.519531 831.855469 1415.546875 985.890625 1303.992188 1097.476562 C 1192.410156 1209.03125 1038.371094 1278.003906 868.132812 1278.003906 C 697.882812 1278.003906 543.847656 1209.03125 432.277344 1097.476562 C 320.707031 985.890625 251.734375 831.855469 251.734375 661.617188 C 251.734375 491.363281 320.707031 337.328125 432.277344 225.761719 C 543.847656 114.191406 697.882812 45.21875 868.132812 45.21875 C 1038.371094 45.21875 1192.410156 114.191406 1303.992188 225.761719 C 1415.546875 337.328125 1484.519531 491.363281 1484.519531 661.617188 L 1502.710938 661.617188 C 1502.710938 311.136719 1218.601562 27.027344 868.132812 27.027344 C 517.652344 27.027344 233.558594 311.136719 233.542969 661.617188 C 233.558594 1012.085938 517.652344 1296.195312 868.132812 1296.195312 C 1218.601562 1296.195312 1502.710938 1012.085938 1502.710938 661.617188 L 1493.617188 661.617188 "/>
</g>
</g>
</svg>
